<?xml version="1.0" standalone="no"?>
<!DOCTYPE svg PUBLIC "-//W3C//DTD SVG 1.1//EN" "http://www.w3.org/Graphics/SVG/1.1/DTD/svg11.dtd" >
<svg xmlns="http://www.w3.org/2000/svg" xmlns:xlink="http://www.w3.org/1999/xlink" version="1.1">
<metadata>
Created by FontForge 20161003 at Mon Jan 14 16:40:34 2019
 By www-data
copyright missing
</metadata>
<defs>
<font id="PierSansBlack" horiz-adv-x="600" >
  <font-face 
    font-family="PierSansBlack"
    font-weight="900"
    font-stretch="normal"
    units-per-em="1000"
    panose-1="0 0 10 0 0 0 0 0 0 0"
    ascent="800"
    descent="-200"
    x-height="515"
    cap-height="750"
    bbox="-541 -336 1460 1094"
    underline-thickness="50"
    underline-position="-150"
    unicode-range="U+0020-25CA"
  />
<missing-glyph horiz-adv-x="483" 
d="M396 780v-965h-306v965h306zM321 715h-159v-31h63v-36h-64v-32h160v32h-63v36h63v31zM258 591h-97v-100h160v32h-63v68zM225 558v-35h-32v35h32zM321 464h-160v-31h64v-36h-64v-32h97v68h63v31zM321 407h-31v-64h-129v-33h160v97zM321 289h-96v-54h33v22h32v-45h-97v77
h-32v-109h160v109zM321 122h-160v-109h160v109zM290 90v-45h-97v45h97zM321 -9h-160v-32h68l-68 -46v-31h160v31h-98l67 46h31v32z" />
    <glyph glyph-name=".notdef" horiz-adv-x="483" 
d="M396 780v-965h-306v965h306zM321 715h-159v-31h63v-36h-64v-32h160v32h-63v36h63v31zM258 591h-97v-100h160v32h-63v68zM225 558v-35h-32v35h32zM321 464h-160v-31h64v-36h-64v-32h97v68h63v31zM321 407h-31v-64h-129v-33h160v97zM321 289h-96v-54h33v22h32v-45h-97v77
h-32v-109h160v109zM321 122h-160v-109h160v109zM290 90v-45h-97v45h97zM321 -9h-160v-32h68l-68 -46v-31h160v31h-98l67 46h31v32z" />
    <glyph glyph-name=".null" horiz-adv-x="0" 
 />
    <glyph glyph-name="nonmarkingreturn" horiz-adv-x="333" 
 />
    <glyph glyph-name="space" unicode=" " horiz-adv-x="333" 
 />
    <glyph glyph-name="exclam" unicode="!" horiz-adv-x="313" 
d="M243 268h-171l-10 512h189zM253 91q0 -40 -28 -68t-68 -28t-67.5 28t-27.5 68q0 38 27.5 65t67.5 27t68 -27t28 -65z" />
    <glyph glyph-name="quotedbl" unicode="&#x22;" horiz-adv-x="530" 
d="M234 515h-161l-15 265h191zM464 515h-161l-15 265h191z" />
    <glyph glyph-name="numbersign" unicode="#" horiz-adv-x="871" 
d="M651 404l-56 -149h139v-99h-175l-57 -156h-105l57 156h-182l-57 -156h-105l58 156h-108v99h144l56 149h-103v99h139l59 161h104l-59 -161h182l60 161h104l-59 -161h144v-99h-180zM546 404h-182l-55 -149h181z" />
    <glyph glyph-name="dollar" unicode="$" horiz-adv-x="738" 
d="M428 457q124 -47 183.5 -102t59.5 -143q0 -100 -68.5 -158.5t-174.5 -64.5v-109h-77v111q-178 17 -291 136l126 124q1 0 22.5 -18t31.5 -25t30.5 -21t40.5 -22t40 -12v166q-25 9 -43 18q-32 15 -50.5 24t-53 31t-54 42.5t-35.5 51.5t-16 65q0 55 23 96.5t61.5 64.5
t80 34.5t87.5 13.5v110h77v-114q157 -21 250 -112l-111 -121q-68 51 -139 69v-135zM291 549q0 -10 1 -15.5t15.5 -19t43.5 -27.5v114q-60 -3 -60 -52zM428 154q51 17 51 63q0 43 -51 69v-132z" />
    <glyph glyph-name="percent" unicode="%" horiz-adv-x="1074" 
d="M263 793q89 0 147 -59t58 -144t-58 -144.5t-147 -59.5q-88 0 -145.5 59.5t-57.5 144.5t57.5 144t145.5 59zM413 0h-163l412 750h162zM263 670q-36 0 -58 -23t-22 -57q0 -35 22 -58t58 -23q37 0 59 23t22 58q0 34 -22 57t-59 23zM810 364q89 0 146.5 -59t57.5 -144
t-58 -144.5t-146 -59.5t-146 59.5t-58 144.5t58 144t146 59zM810 241q-36 0 -58 -23t-22 -57q0 -35 21.5 -58t58.5 -23t59 23t22 58q0 34 -22 57t-59 23z" />
    <glyph glyph-name="ampersand" unicode="&#x26;" horiz-adv-x="905" 
d="M622 0l-36 43q-31 -20 -86.5 -34t-118.5 -14q-56 0 -110.5 14t-103 41t-78 75t-29.5 109q0 53 20 94.5t52.5 64.5t59.5 35t54 18q-31 33 -42 46t-23 38t-12 51q0 81 64.5 127.5t170.5 46.5q98 0 166 -48.5t68 -121.5q0 -57 -33.5 -97.5t-91.5 -75.5l101 -128q27 26 45 68
l167 -101q-36 -70 -93 -118l112 -133h-223zM404 595q-42 0 -42 -32q0 -31 42 -31q41 0 41 31q0 32 -41 32zM476 181l-139 172q-40 -19 -62 -51.5t-22 -57.5q0 -44 34 -66.5t78 -22.5q61 0 111 26z" />
    <glyph glyph-name="quotesingle" unicode="'" horiz-adv-x="308" 
d="M234 515h-161l-15 265h191z" />
    <glyph glyph-name="parenleft" unicode="(" horiz-adv-x="465" 
d="M253 299q0 -84 14 -146.5t40 -99.5t50.5 -57t57.5 -35l-13 -165q-160 52 -251 186.5t-91 316.5t91.5 316t250.5 186l13 -164q-33 -15 -57.5 -35t-50.5 -57t-40 -99.5t-14 -146.5z" />
    <glyph glyph-name="parenright" unicode=")" horiz-adv-x="388" 
d="M135 299q0 84 -14 146.5t-40 99.5t-50.5 57t-57.5 35l13 164q159 -52 250.5 -186t91.5 -316t-91 -316.5t-251 -186.5l-13 165q33 15 57.5 35t50.5 57t40 99.5t14 146.5z" />
    <glyph glyph-name="asterisk" unicode="*" horiz-adv-x="428" 
d="M405 548l-106 4l57 -89l-88 -51l-49 95l-49 -95l-88 51l57 89l-106 -4v101l106 -3l-57 90l88 51l49 -96l49 96l88 -51l-57 -90l106 3v-101z" />
    <glyph glyph-name="plus" unicode="+" horiz-adv-x="509" 
d="M330 172v-120h-151v120h-119v150h119v120h151v-120h119v-150h-119z" />
    <glyph glyph-name="comma" unicode="," horiz-adv-x="260" 
d="M252 89q0 -36 -43 -92l-88 -108h-46l37 116q-23 11 -36.5 34t-13.5 50q0 39 27.5 66.5t66.5 27.5q40 0 68 -27.5t28 -66.5z" />
    <glyph glyph-name="hyphen" unicode="-" horiz-adv-x="499" 
d="M449 184h-389v150h389v-150z" />
    <glyph glyph-name="period" unicode="." horiz-adv-x="311" 
d="M251 91q0 -40 -28 -68t-68 -28q-39 0 -67 28t-28 68q0 38 28 65t67 27q40 0 68 -27t28 -65z" />
    <glyph glyph-name="slash" unicode="/" horiz-adv-x="499" 
d="M135 -185h-197l345 935h196z" />
    <glyph glyph-name="zero" unicode="0" horiz-adv-x="658" 
d="M626 260q0 -83 -44 -144.5t-110 -91t-142 -29.5q-75 0 -141.5 29t-111 91t-44.5 145v230q0 122 89.5 193.5t207.5 71.5q127 0 211 -67t87 -198zM435 490q0 49 -32 77t-73 28t-72.5 -28t-31.5 -77v-228q0 -50 31.5 -78.5t72.5 -28.5t73 28t32 79v228z" />
    <glyph glyph-name="one" unicode="1" horiz-adv-x="350" 
d="M326 750v-750h-192v590h-101v160h293z" />
    <glyph glyph-name="two" unicode="2" horiz-adv-x="576" 
d="M261 160h285v-160h-506v92q0 64 18.5 106.5t53.5 73.5t109 79q132 83 132 188q0 22 -10.5 35.5t-20 17t-15.5 3.5q-30 0 -43 -14q-27 -26 -27 -101l-193 22q0 105 70.5 179t191.5 74q110 0 175 -62.5t65 -153.5q0 -66 -23 -116t-82 -96q-25 -21 -77 -52t-77.5 -56
t-25.5 -59z" />
    <glyph glyph-name="three" unicode="3" horiz-adv-x="599" 
d="M392 503q177 -45 177 -243q0 -68 -24.5 -120.5t-66 -83t-90 -46t-100.5 -15.5q-67 0 -137.5 24.5t-110.5 74.5l102 121q57 -60 133 -60q40 0 71.5 26.5t31.5 78.5q0 19 -5.5 38.5t-19 40.5t-43.5 31.5t-72 5.5l-47 89l80 125h-171v160h467z" />
    <glyph glyph-name="four" unicode="4" horiz-adv-x="655" 
d="M354 0v179h-314v121l328 450h179v-411h78v-160h-78v-179h-193zM354 339v120l-88 -120h88z" />
    <glyph glyph-name="five" unicode="5" horiz-adv-x="616" 
d="M384 520q94 0 148 -73t54 -174q0 -73 -26.5 -128.5t-70 -87t-93 -47t-102.5 -15.5q-171 0 -254 106l113 108q59 -54 135 -54q17 0 39 8t44 35.5t22 69.5q0 36 -13 61t-33.5 36.5t-37.5 16t-33 4.5q-51 0 -95 -50l-86 87v327h421v-160h-229v-89q5 1 21.5 7t33.5 9t42 3z
" />
    <glyph glyph-name="six" unicode="6" horiz-adv-x="622" 
d="M411 520q77 0 129 -69.5t52 -178.5q0 -125 -78 -201t-206 -76q-126 0 -203.5 73t-77.5 187q0 35 8 74t27 82t33.5 74.5t44.5 79.5t42 67t45.5 66.5t35.5 51.5h220l-182 -264q51 34 110 34zM308 157q44 0 67.5 27t23.5 71q0 49 -23.5 76.5t-67.5 27.5q-43 0 -66 -27.5
t-23 -76.5q0 -44 23.5 -71t65.5 -27z" />
    <glyph glyph-name="seven" unicode="7" horiz-adv-x="687" 
d="M650 750l-405 -750h-198l311 590h-285v160h577z" />
    <glyph glyph-name="eight" unicode="8" horiz-adv-x="672" 
d="M454 428q73 -8 130.5 -67.5t57.5 -141.5q0 -71 -44 -123.5t-111 -76.5t-146 -24t-146 24t-111 76.5t-44 123.5q0 82 57.5 141.5t129.5 67.5q-11 3 -26.5 11.5t-37 25.5t-36.5 47t-15 67q0 78 65 127t165 49q99 0 164.5 -49.5t65.5 -126.5q0 -37 -15 -67t-37.5 -47
t-38.5 -25.5t-27 -11.5zM305 554q0 -17 8.5 -27t15 -12t13.5 -2q6 0 13 2t15.5 12t8.5 27q0 41 -37 41t-37 -41zM341 155q53 0 80.5 26.5t27.5 67.5t-27.5 67t-80.5 26q-52 0 -80 -26.5t-28 -66.5q0 -41 28 -67.5t80 -26.5z" />
    <glyph glyph-name="nine" unicode="9" horiz-adv-x="635" 
d="M220 230q-76 0 -128 69.5t-52 178.5q0 125 78 201t206 76q126 0 203.5 -73t77.5 -187q0 -35 -8 -74t-26.5 -81.5t-34 -75t-45 -79t-43 -67.5t-45 -66.5t-35.5 -51.5h-219l181 264q-50 -34 -110 -34zM324 593q-44 0 -67.5 -27t-23.5 -71q0 -49 23.5 -76.5t67.5 -27.5
q43 0 65.5 27.5t22.5 76.5q0 44 -23 71t-65 27z" />
    <glyph glyph-name="colon" unicode=":" horiz-adv-x="261" 
d="M251 411q0 -40 -28 -68t-68 -28q-39 0 -67 28t-28 68q0 38 28 65t67 27q40 0 68 -27t28 -65zM251 91q0 -40 -28 -68t-68 -28q-39 0 -67 28t-28 68q0 38 28 65t67 27q40 0 68 -27t28 -65z" />
    <glyph glyph-name="semicolon" unicode=";" horiz-adv-x="260" 
d="M251 411q0 -40 -28 -68t-68 -28q-39 0 -67 28t-28 68q0 38 28 65t67 27q40 0 68 -27t28 -65zM252 89q0 -36 -43 -92l-88 -108h-46l37 116q-23 11 -36.5 34t-13.5 50q0 39 27.5 66.5t66.5 27.5q40 0 68 -27.5t28 -66.5z" />
    <glyph glyph-name="less" unicode="&#x3c;" horiz-adv-x="506" 
d="M60 336l386 253v-211l-172 -106l172 -105v-210l-386 253v126z" />
    <glyph glyph-name="equal" unicode="=" horiz-adv-x="509" 
d="M449 279h-389v150h389v-150zM449 69h-389v151h389v-151z" />
    <glyph glyph-name="greater" unicode="&#x3e;" horiz-adv-x="484" 
d="M424 336v-126l-386 -253v210l172 105l-172 106v211z" />
    <glyph glyph-name="question" unicode="?" horiz-adv-x="658" 
d="M211 254q0 76 17.5 113.5t66.5 68.5q51 33 76 55t29.5 31.5t4.5 24.5q0 48 -64 48q-88 0 -88 -93l-193 15q0 60 26.5 108t69 75t90 41t95.5 14q103 0 180 -56t77 -134q0 -39 -19 -72t-40.5 -50t-54.5 -37q-31 -20 -49.5 -40.5t-24 -38t-7 -36.5t0.5 -37h-193zM417 91
q0 -40 -28 -68t-68 -28q-39 0 -67 28t-28 68q0 38 28 65t67 27q40 0 68 -27t28 -65z" />
    <glyph glyph-name="at" unicode="@" horiz-adv-x="1015" 
d="M730 502l-61 -320q-14 -66 29 -88q40 -20 89 12q68 45 78 148l1 28q0 146 -104 249.5t-250 103.5t-250 -103.5t-104 -249.5t104 -250t250 -104q88 0 133 26l108 -63q-106 -71 -241 -71q-126 0 -231.5 58.5t-168 165t-62.5 238.5q0 198 135 329.5t327 131.5
q193 0 328 -131.5t135 -329.5q0 -125 -65.5 -201.5t-163.5 -91.5q-85 -13 -139 19t-57 93q-59 -49 -140 -49q-92 0 -140 61.5t-30 164.5q19 107 89.5 172t161.5 65q82 0 124 -48l6 35h109zM449 173q45 0 76 29.5t39 77.5q9 51 -11 83t-65 32t-77 -32t-40 -83
q-8 -48 12.5 -77.5t65.5 -29.5z" />
    <glyph glyph-name="A" unicode="A" horiz-adv-x="771" 
d="M577 0l-49 121h-285l-49 -121h-184l291 750h168l292 -750h-184zM308 281h155l-78 191z" />
    <glyph glyph-name="B" unicode="B" horiz-adv-x="657" 
d="M457 421q90 -33 121.5 -80.5t31.5 -128.5q0 -41 -13 -76.5t-40 -67t-77.5 -50t-117.5 -18.5h-312v750h295q89 0 150 -51.5t61 -125.5q0 -53 -29 -94.5t-70 -57.5zM243 490h79q41 7 41 50q0 50 -44 50h-76v-100zM329 160q45 0 66.5 24t21.5 61t-21 60.5t-66 24.5h-87v-170
h86z" />
    <glyph glyph-name="C" unicode="C" horiz-adv-x="786" 
d="M756 179q-44 -86 -132 -135t-186 -49q-160 0 -279 111t-119 269t119 269t279 111q99 0 187 -48t131 -138l-135 -84q-24 46 -70.5 78t-109.5 32q-97 0 -152.5 -61t-55.5 -159t55.5 -159t152.5 -61q62 0 108 32t72 77z" />
    <glyph glyph-name="D" unicode="D" horiz-adv-x="750" 
d="M727 375q0 -155 -111 -264.5t-266 -110.5h-307v750h307q155 -1 266 -111t111 -264zM363 160q43 1 77.5 23.5t54 56.5t29.5 69t10 66q0 72 -45 142t-126 73h-127v-430h127z" />
    <glyph glyph-name="E" unicode="E" horiz-adv-x="648" 
d="M618 160v-160h-558v750h541v-160h-348v-124h285v-161h-285v-145h365z" />
    <glyph glyph-name="F" unicode="F" horiz-adv-x="630" 
d="M253 590v-149h277v-161h-277v-280h-193v750h540v-160h-347z" />
    <glyph glyph-name="G" unicode="G" horiz-adv-x="885" 
d="M845 438v-438h-192v108q-27 -50 -89.5 -85t-145.5 -35q-151 0 -259.5 112.5t-108.5 274.5t115.5 273.5t277.5 111.5q86 0 170 -37t146 -106l-126 -127q-24 42 -78 76t-112 34q-52 0 -92 -21t-63 -54.5t-34.5 -71.5t-11.5 -78q0 -95 50 -160.5t151 -65.5q83 0 139.5 39
t56.5 107h-160v143h366z" />
    <glyph glyph-name="H" unicode="H" horiz-adv-x="775" 
d="M735 750v-750h-193v294h-289v-294h-193v750h193v-296h289v296h193z" />
    <glyph glyph-name="I" unicode="I" horiz-adv-x="293" 
d="M253 0h-193v750h193v-750z" />
    <glyph glyph-name="J" unicode="J" horiz-adv-x="632" 
d="M592 750v-515q0 -41 -14 -81.5t-43.5 -79t-84 -62.5t-125.5 -24q-72 0 -125.5 27.5t-83 73t-43 95t-13.5 103.5h193q0 -138 72 -138q24 0 40.5 10.5t23 27t8.5 27.5t2 21v515h193z" />
    <glyph glyph-name="K" unicode="K" horiz-adv-x="811" 
d="M438 426l333 -426h-224l-252 322l-42 -35v-287h-193v750h193v-256l272 256h246z" />
    <glyph glyph-name="L" unicode="L" horiz-adv-x="556" 
d="M526 160v-160h-466v750h193v-590h273z" />
    <glyph glyph-name="M" unicode="M" horiz-adv-x="976" 
d="M926 750v-750h-192v355l-181 -355h-120l-180 355v-355h-193v750h191l242 -477l242 477h191z" />
    <glyph glyph-name="N" unicode="N" horiz-adv-x="792" 
d="M735 0h-187l-295 427v-427h-193v750h186l297 -427v427h192v-750z" />
    <glyph glyph-name="O" unicode="O" horiz-adv-x="872" 
d="M438 755q173 0 285 -103.5t112 -276.5t-112 -276.5t-285 -103.5q-174 0 -286 103.5t-112 276.5t112 276.5t286 103.5zM438 595q-94 0 -149.5 -59.5t-55.5 -160.5q0 -102 55.5 -161t149.5 -59t149.5 59t55.5 161q0 101 -56 160.5t-149 59.5z" />
    <glyph glyph-name="P" unicode="P" horiz-adv-x="670" 
d="M640 464q0 -123 -80.5 -205t-218.5 -81h-98v-178h-193v750h291q137 0 218 -82t81 -204zM322 338q60 0 92.5 36t32.5 90t-32.5 90t-92.5 36h-79v-252h79z" />
    <glyph glyph-name="Q" unicode="Q" horiz-adv-x="845" 
d="M835 375q0 -137 -74 -235l61 -61l-120 -120l-76 75q-86 -39 -188 -39q-174 0 -286 103.5t-112 276.5t112 276.5t286 103.5q173 0 285 -103.5t112 -276.5zM438 155q27 0 60 7l-86 86l121 120l92 -93q18 43 18 100q0 101 -56 160.5t-149 59.5q-94 0 -149.5 -59.5
t-55.5 -160.5q0 -102 55.5 -161t149.5 -59z" />
    <glyph glyph-name="R" unicode="R" horiz-adv-x="721" 
d="M651 472q0 -73 -34 -134.5t-94 -99.5l161 -238h-212l-130 195h-89v-195h-193v750h306q120 1 202.5 -79.5t82.5 -198.5zM253 355h95q110 0 110 117q0 118 -110 118h-95v-235z" />
    <glyph glyph-name="S" unicode="S" horiz-adv-x="664" 
d="M370 467q140 -50 205.5 -106t65.5 -149q0 -106 -76.5 -165t-191.5 -59q-213 2 -343 139l126 124q2 -1 27 -21.5t37.5 -29t37.5 -23.5t49 -21.5t49 -6.5q39 -1 66 16.5t27 51.5q0 24 -16.5 42.5t-34 27t-59 25t-61.5 25.5q-32 15 -50.5 24t-53 31t-54 42.5t-35.5 51.5
t-16 65q0 57 24.5 99.5t65 65.5t84.5 33.5t90 10.5q95 0 179.5 -32.5t135.5 -83.5l-111 -121q-33 25 -87.5 51t-109.5 26q-30 0 -35 -1q-44 -9 -44 -50v-10.5t5.5 -12.5t15.5 -17t32.5 -18.5t55.5 -23.5z" />
    <glyph glyph-name="T" unicode="T" horiz-adv-x="625" 
d="M605 590h-190v-590h-193v590h-192v160h575v-160z" />
    <glyph glyph-name="U" unicode="U" horiz-adv-x="732" 
d="M692 750v-451q0 -42 -7 -80.5t-28 -82t-54.5 -75t-91.5 -52.5t-134 -21t-134 21t-92 52.5t-55 75t-28.5 82.5t-7.5 80v451h193v-451q0 -19 3.5 -38t14 -47.5t38 -46.5t68.5 -18q33 0 57.5 13t36.5 30t19 41t8 37.5t1 28.5v451h193z" />
    <glyph glyph-name="V" unicode="V" horiz-adv-x="709" 
d="M292 0l-282 750h189l157 -427l154 427h189l-282 -750h-125z" />
    <glyph glyph-name="W" unicode="W" horiz-adv-x="1048" 
d="M275 0l-265 750h183l136 -384l134 384h120l136 -384l135 384h184l-267 -750h-110l-138 397l-137 -397h-111z" />
    <glyph glyph-name="X" unicode="X" horiz-adv-x="781" 
d="M500 376l261 -376h-217l-151 228l-146 -228h-217l259 376l-259 374h217l149 -229l147 229h218z" />
    <glyph glyph-name="Y" unicode="Y" horiz-adv-x="784" 
d="M774 750l-286 -472v-278h-192v278l-286 472h202l180 -292l182 292h200z" />
    <glyph glyph-name="Z" unicode="Z" horiz-adv-x="665" 
d="M628 598l-350 -438h350v-160h-581v152l353 438h-353v160h581v-152z" />
    <glyph glyph-name="bracketleft" unicode="[" horiz-adv-x="405" 
d="M365 -25v-160h-305v965h305v-160h-112v-645h112z" />
    <glyph glyph-name="backslash" unicode="\" horiz-adv-x="591" 
d="M374 -185l-344 935h196l345 -935h-197z" />
    <glyph glyph-name="bracketright" unicode="]" horiz-adv-x="323" 
d="M-42 -25h112v645h-112v160h305v-965h-305v160z" />
    <glyph glyph-name="asciicircum" unicode="^" 
 />
    <glyph glyph-name="underscore" unicode="_" horiz-adv-x="623" 
d="M603 -159h-573v134h573v-134z" />
    <glyph glyph-name="grave" unicode="`" horiz-adv-x="344" 
d="M284 614h-119l-105 133l130 50z" />
    <glyph glyph-name="a" unicode="a" horiz-adv-x="575" 
d="M318 520q217 0 217 -226v-294h-190v56q-10 -16 -20 -27t-40 -22.5t-73 -11.5q-82 0 -122 40.5t-40 109.5q0 90 58.5 128.5t168.5 38.5h68q0 60 -59 60q-47 0 -88 -36l-105 94q88 90 225 90zM345 171v16h-39q-38 0 -52 -8.5t-14 -30.5q0 -39 49 -39q56 0 56 62z" />
    <glyph glyph-name="b" unicode="b" horiz-adv-x="635" 
d="M406 520q92 0 154 -70t62 -192q0 -128 -61.5 -195.5t-154.5 -67.5q-112 0 -166 73v-68h-190v780h190v-333q53 73 166 73zM336 142q45 0 70.5 32t25.5 84t-25.5 83.5t-70.5 31.5t-70.5 -31.5t-25.5 -83.5t25.5 -84t70.5 -32z" />
    <glyph glyph-name="c" unicode="c" horiz-adv-x="511" 
d="M504 107q-36 -56 -87 -84t-132 -28q-109 0 -185.5 76t-76.5 185t76.5 186.5t185.5 77.5q81 0 132 -28t87 -84l-109 -97q-33 61 -93 61q-44 0 -66.5 -32.5t-22.5 -83.5q0 -50 22.5 -82t66.5 -32q18 0 29 1.5t30 16.5t34 44z" />
    <glyph glyph-name="d" unicode="d" horiz-adv-x="625" 
d="M246 520q113 0 166 -73v333h190v-780h-190v68q-54 -73 -166 -73q-93 0 -154.5 67.5t-61.5 195.5q0 122 62 192t154 70zM316 142q45 0 70.5 32t25.5 84t-25.5 83.5t-70.5 31.5t-70.5 -31.5t-25.5 -83.5t25.5 -84t70.5 -32z" />
    <glyph glyph-name="e" unicode="e" horiz-adv-x="571" 
d="M558 202l-327 5q0 -31 27.5 -48t64.5 -17q24 0 52 10t43 28l113 -103q-85 -82 -221 -82q-123 0 -196.5 77.5t-73.5 190.5q0 112 69 184.5t186 72.5q121 0 192 -74t71 -190v-54zM368 307q0 29 -20.5 47t-52.5 18q-31 0 -48 -16.5t-17 -48.5h138z" />
    <glyph glyph-name="f" unicode="f" horiz-adv-x="397" 
d="M384 585q-23 23 -63 23q-24 0 -40 -17.5t-16 -49.5v-26h119v-148h-119v-367h-190v367h-52v148h52v19q0 119 50 170t130 51q84 0 129 -51v-119z" />
    <glyph glyph-name="g" unicode="g" horiz-adv-x="625" 
d="M406 515h189v-454q0 -67 -23.5 -117.5t-63.5 -78.5t-86.5 -41.5t-99.5 -13.5q-1 0 -16.5 -0.5t-28.5 0t-35.5 1.5t-45.5 5t-51 9.5t-59 16t-62 24.5l83 122q19 -6 36 -11t30 -8.5t27 -5.5t22 -3.5t20.5 -2t16.5 -0.5h15.5h13.5q45 0 81.5 24t36.5 86q-55 -72 -167 -72
q-92 0 -154 70t-62 192q0 128 61.5 195.5t154.5 67.5q112 0 167 -73v68zM309 142q46 0 71.5 31.5t25.5 83.5q0 51 -25.5 83t-71.5 32q-45 0 -70.5 -32t-25.5 -83q0 -52 25.5 -83.5t70.5 -31.5z" />
    <glyph glyph-name="h" unicode="h" horiz-adv-x="549" 
d="M526 0h-178v307q0 84 -60 84q-32 0 -46 -19.5t-14 -64.5v-307h-178v780h178v-311q21 26 57.5 38.5t65.5 12.5q93 0 133.5 -53.5t40.5 -163.5z" />
    <glyph glyph-name="i" unicode="i" horiz-adv-x="274" 
d="M234 682q0 -35 -26 -59t-65 -24q-38 0 -64.5 24t-26.5 59q0 34 27 58t64 24q39 0 65 -24t26 -58zM235 0h-188v515h188v-515z" />
    <glyph glyph-name="j" unicode="j" horiz-adv-x="314" 
d="M267 682q0 -35 -26 -59t-65 -24q-37 0 -64 24t-27 59q0 34 27 58t64 24q39 0 65 -24t26 -58zM-6 -37q85 -46 85 82v470h190v-489q0 -107 -52.5 -161.5t-116.5 -54.5q-67 0 -137 35z" />
    <glyph glyph-name="k" unicode="k" horiz-adv-x="645" 
d="M244 204l-14 -12v-192h-190v780h190v-411l166 146h249l-255 -226l245 -289h-221z" />
    <glyph glyph-name="l" unicode="l" horiz-adv-x="280" 
d="M240 0h-190v780h190v-780z" />
    <glyph glyph-name="m" unicode="m" horiz-adv-x="947" 
d="M572 0h-190l3 4v201q0 36 -1 57.5t-5.5 45t-13 36t-23.5 20.5t-38 8q-24 0 -39.5 -8t-24 -18t-12.5 -34.5t-4.5 -41.5t-0.5 -55v-10v-205h-190v515h190v-79q52 84 144 84q127 0 151 -118q24 54 77 86t123 32q91 0 148.5 -50t57.5 -147v-323h-190v205v13q0 31 -0.5 45.5
t-2.5 36.5t-7 31.5t-14 21t-23 15.5t-34 4q-50 0 -65.5 -40t-15.5 -127v-205z" />
    <glyph glyph-name="n" unicode="n" horiz-adv-x="533" 
d="M509 0h-178v307q0 84 -60 84q-32 0 -46 -19.5t-14 -64.5v-307h-178v515h178v-46q21 26 58 38.5t66 12.5q93 0 133 -53.5t40 -163.5z" />
    <glyph glyph-name="o" unicode="o" horiz-adv-x="577" 
d="M290 520q115 0 194.5 -68t79.5 -196q0 -127 -79.5 -194t-194.5 -67t-194 66.5t-79 194.5t79 196t194 68zM290 372q-84 0 -84 -116q0 -114 84 -114t84 114q0 116 -84 116z" />
    <glyph glyph-name="p" unicode="p" horiz-adv-x="619" 
d="M406 -5q-113 0 -166 72v-252h-190v700h190v-68q54 73 166 73q93 0 154.5 -67.5t61.5 -195.5q0 -122 -62 -192t-154 -70zM336 372q-45 0 -70.5 -31.5t-25.5 -83.5t25 -83.5t71 -31.5t71 31.5t25 83.5t-25.5 83.5t-70.5 31.5z" />
    <glyph glyph-name="q" unicode="q" horiz-adv-x="619" 
d="M239 -5q-92 0 -154 70t-62 192q0 128 61.5 195.5t154.5 67.5q112 0 167 -73v68h189v-700h-189v252q-55 -72 -167 -72zM309 372q-45 0 -70.5 -32t-25.5 -83q0 -52 25.5 -83.5t70.5 -31.5q46 0 71.5 31.5t25.5 83.5q0 51 -25.5 83t-71.5 32z" />
    <glyph glyph-name="r" unicode="r" horiz-adv-x="437" 
d="M405 340q-32 32 -77 32q-62 0 -83.5 -42t-21.5 -145v-185h-190v515h190v-84q14 47 43.5 68t80.5 21q52 0 80 -35z" />
    <glyph glyph-name="s" unicode="s" horiz-adv-x="463" 
d="M238 358q0 -12 12 -22.5t61 -34.5q70 -33 101 -69.5t31 -83.5q0 -75 -56.5 -114t-142.5 -39q-58 0 -127 28.5t-110 78.5l106 108q33 -36 65.5 -52t51.5 -16q23 0 23 18t-20.5 34.5t-72.5 45.5q-60 34 -86 65.5t-26 72.5q0 35 15 61.5t36.5 41.5t49.5 24t48.5 12t38.5 3
q59 0 120 -22.5t96 -67.5l-102 -104q-42 46 -93 46q-19 -2 -19 -14z" />
    <glyph glyph-name="t" unicode="t" horiz-adv-x="394" 
d="M374 137v-112q-36 -30 -121 -30q-171 0 -171 199v173h-52v148h52v138h189v-138h103v-148h-103v-168q0 -46 33.5 -64.5t69.5 2.5z" />
    <glyph glyph-name="u" unicode="u" horiz-adv-x="533" 
d="M33 515h178v-308q0 -44 14.5 -63.5t45.5 -19.5q33 0 46.5 19t13.5 64v308h178v-515h-178v46q-20 -26 -57 -38.5t-66 -12.5q-93 0 -133.5 53t-40.5 163z" />
    <glyph glyph-name="v" unicode="v" horiz-adv-x="622" 
d="M249 0l-246 515h186l119 -268l120 268h184l-243 -515h-120z" />
    <glyph glyph-name="w" unicode="w" horiz-adv-x="831" 
d="M821 515l-202 -515h-120l-84 235l-82 -235h-121l-202 515h184l79 -258l77 258h130l79 -259l79 259h183z" />
    <glyph glyph-name="x" unicode="x" horiz-adv-x="617" 
d="M422 259l185 -259h-205l-93 147l-93 -147h-206l186 259l-186 256h205l92 -146l95 146h205z" />
    <glyph glyph-name="y" unicode="y" horiz-adv-x="629" 
d="M619 515l-155 -379q-43 -106 -71.5 -164t-61 -96t-65 -49.5t-82.5 -10.5q-34 0 -74.5 16.5t-63.5 46.5l25 113q60 -30 96 -30q72 0 23 127l-163 426h187l109 -321l109 321h187z" />
    <glyph glyph-name="z" unicode="z" horiz-adv-x="478" 
d="M458 363l-227 -216h227v-147h-428v157l228 210h-228v148h428v-152z" />
    <glyph glyph-name="braceleft" unicode="{" horiz-adv-x="542" 
d="M381 68q0 -59 23 -87t88 -28v-160q-62 -1 -114 8t-95.5 30t-68.5 59.5t-25 90.5q0 40 11.5 99t6.5 86.5t-39 43.5q-16 7 -37 8.5t-45 -1t-26 -2.5v162q1 0 25.5 -2t45.5 -0.5t37 8.5q34 16 39 43.5t-6.5 86.5t-11.5 99q0 52 25 90.5t68.5 59.5t95.5 30t114 8v-160
q-65 0 -88 -28t-23 -87v-18q0 -44 -1.5 -67.5t-10 -57t-30 -54t-56.5 -32.5q35 -12 56.5 -32.5t30 -54t10 -56t1.5 -67.5v-18z" />
    <glyph glyph-name="bar" unicode="|" horiz-adv-x="276" 
d="M60 830h166v-965h-166v965z" />
    <glyph glyph-name="braceright" unicode="}" horiz-adv-x="491" 
d="M110 68v18q0 44 1.5 67t10 56.5t30 54t56.5 32.5q-35 12 -56.5 32.5t-30 54.5t-10 56.5t-1.5 67.5v18q0 59 -23 87t-88 28v160q62 1 114 -8t95.5 -30t68.5 -59.5t25 -90.5q0 -40 -11.5 -99t-6.5 -86.5t39 -43.5q16 -7 37 -8.5t45.5 0.5t25.5 2v-162q-2 0 -26 2.5t-45 1
t-37 -8.5q-34 -16 -39 -43.5t6.5 -86.5t11.5 -99q0 -52 -25 -90.5t-68.5 -59.5t-95.5 -30t-114 -8v160q65 0 88 28t23 87z" />
    <glyph glyph-name="asciitilde" unicode="~" horiz-adv-x="551" 
d="M207 276q-17 0 -22.5 -12t-5.5 -41h-119q0 85 36.5 131t86.5 46q33 0 88 -26.5t73 -26.5q17 0 22.5 12t5.5 41h119q0 -85 -36.5 -131t-86.5 -46q-34 0 -88.5 26.5t-72.5 26.5z" />
    <glyph glyph-name="exclamdown" unicode="&#xa1;" horiz-adv-x="243" 
d="M253 504q0 -38 -28 -65t-68 -27t-67.5 27t-27.5 65q0 40 27.5 68t67.5 28t68 -28t28 -68zM243 327l8 -512h-189l10 512h171z" />
    <glyph glyph-name="cent" unicode="&#xa2;" horiz-adv-x="601" 
d="M381 152q26 15 44 52l109 -97q-57 -88 -153 -106v-131h-77v125q-105 5 -178 80t-73 181t73 183t178 81v107h77v-113q96 -18 153 -106l-109 -97q-19 35 -44 50v-209zM243 256q0 -91 61 -110v222q-61 -20 -61 -112z" />
    <glyph glyph-name="sterling" unicode="&#xa3;" horiz-adv-x="660" 
d="M379 279q-9 -29 -30.5 -53.5t-38.5 -40t-17 -25.5h292v-160h-525q0 62 15.5 109.5t35 70t42 50t31.5 49.5h-87v77h94q-3 40 -21 89.5t-18 87.5q0 94 73 158t166 64q68 0 109.5 -15t100.5 -55l-78 -141l-11 10q-12 11 -17.5 15.5t-17 12t-24.5 10.5t-27 3q-25 0 -42 -10.5
t-25 -27t-11 -30.5t-3 -27q0 -40 17 -86.5t19 -57.5h153v-77h-155z" />
    <glyph glyph-name="currency" unicode="&#xa4;" 
 />
    <glyph glyph-name="yen" unicode="&#xa5;" horiz-adv-x="884" 
d="M824 750l-275 -453h113v-78h-124v-42h124v-78h-124v-99h-192v99h-123v78h123v42h-123v78h112l-275 453h202l180 -292l182 292h200z" />
    <glyph glyph-name="brokenbar" unicode="&#xa6;" 
 />
    <glyph glyph-name="section" unicode="&#xa7;" 
 />
    <glyph glyph-name="dieresis" unicode="&#xa8;" horiz-adv-x="541" 
d="M244 714q0 -40 -28 -68t-68 -28q-39 0 -67 28t-28 68q0 38 28 65t67 27q40 0 68 -27t28 -65zM488 714q0 -40 -28 -68t-68 -28q-39 0 -67 28t-28 68q0 38 28 65t67 27q40 0 68 -27t28 -65z" />
    <glyph glyph-name="copyright" unicode="&#xa9;" horiz-adv-x="1045" 
d="M522 -169q126 0 232 58.5t168.5 165t62.5 238.5q0 198 -135 329.5t-328 131.5q-192 0 -327 -131.5t-135 -329.5q0 -132 62.5 -238.5t168 -165t231.5 -58.5zM522 -61q-155 0 -254.5 102.5t-99.5 251.5q0 148 99.5 250.5t254.5 102.5q156 0 255 -102t99 -251t-99 -251.5
t-255 -102.5zM738 147q-37 -56 -88 -84t-131 -28q-109 0 -185.5 76t-76.5 185t76.5 186.5t185.5 77.5q80 0 131 -28t88 -84l-110 -97q-33 61 -93 61q-44 0 -66.5 -32.5t-22.5 -83.5q0 -50 22.5 -82t66.5 -32q18 0 29 1.5t30 16.5t34 44z" />
    <glyph glyph-name="guillemotleft" unicode="&#xab;" horiz-adv-x="829" 
d="M60 319l359 270v-204l-179 -113l179 -111v-204l-359 269v93zM410 319l359 270v-204l-178 -113l178 -111v-204l-359 269v93z" />
    <glyph glyph-name="logicalnot" unicode="&#xac;" 
 />
    <glyph glyph-name="registered" unicode="&#xae;" horiz-adv-x="728" 
d="M364 176q128 0 216 84.5t88 218.5t-88 219t-216 85t-216 -85t-88 -219t88.5 -218.5t215.5 -84.5zM364 255q-93 0 -159 66t-66 158q0 93 66 159t159 66t158.5 -66t65.5 -159q0 -92 -65.5 -158t-158.5 -66zM485 522q0 -59 -48 -89l61 -89h-80l-49 73h-34v-73h-72v282h115
q45 0 76 -30t31 -74zM335 477h36q42 0 42 45q0 44 -42 44h-36v-89z" />
    <glyph glyph-name="macron" unicode="&#xaf;" horiz-adv-x="476" 
d="M449 577h-389v150h389v-150z" />
    <glyph glyph-name="degree" unicode="&#xb0;" horiz-adv-x="528" 
d="M263 813q89 0 147 -59t58 -144t-58 -144.5t-147 -59.5q-88 0 -145.5 59.5t-57.5 144.5t57.5 144t145.5 59zM263 690q-36 0 -58 -23t-22 -57q0 -35 22 -58t58 -23q37 0 59 23t22 58q0 34 -22 57t-59 23z" />
    <glyph glyph-name="plusminus" unicode="&#xb1;" horiz-adv-x="509" 
d="M330 287v-96h-151v96h-119v151h119v96h151v-96h119v-151h-119zM449 -7h-389v150h389v-150z" />
    <glyph glyph-name="acute" unicode="&#xb4;" horiz-adv-x="344" 
d="M60 614l94 183l130 -50l-105 -133h-119z" />
    <glyph glyph-name="paragraph" unicode="&#xb6;" 
 />
    <glyph glyph-name="periodcentered" unicode="&#xb7;" horiz-adv-x="261" 
d="M251 321q0 -40 -28 -68t-68 -28q-39 0 -67 28t-28 68q0 38 28 65t67 27q40 0 68 -27t28 -65z" />
    <glyph glyph-name="cedilla" unicode="&#xb8;" horiz-adv-x="271" 
d="M192 0l-35 -51q42 2 64.5 -17t22.5 -55t-32 -60t-71 -24q-62 0 -98 29l44 53q14 -11 33 -11q31 0 31 23q0 22 -31 22q-19 0 -33 -11l-27 43l44 59h88z" />
    <glyph glyph-name="guillemotright" unicode="&#xbb;" horiz-adv-x="691" 
d="M281 319v-93l-359 -269v204l178 111l-178 113v204zM631 319v-93l-359 -269v204l179 111l-179 113v204z" />
    <glyph glyph-name="questiondown" unicode="&#xbf;" horiz-adv-x="579" 
d="M172 475q0 40 28 68t68 28q39 0 67 -28t28 -68q0 -38 -28 -65t-67 -27q-40 0 -68 27t-28 65zM378 312q0 -76 -17.5 -113.5t-66.5 -68.5q-51 -33 -76 -55t-29.5 -31.5t-4.5 -24.5q0 -48 64 -48q88 0 88 93l193 -15q0 -60 -26.5 -108t-69 -75t-90 -41t-95.5 -14
q-103 0 -180 56t-77 134q0 39 19 72t40.5 50t54.5 37q31 20 49.5 40.5t24 38t7 36.5t-0.5 37h193z" />
    <glyph glyph-name="Agrave" unicode="&#xc0;" horiz-adv-x="771" 
d="M456 861h-119l-105 133l130 50zM577 0l-49 121h-285l-49 -121h-184l291 750h168l292 -750h-184zM308 281h155l-78 191z" />
    <glyph glyph-name="Aacute" unicode="&#xc1;" horiz-adv-x="771" 
d="M545 994l-105 -133h-119l94 183zM577 0l-49 121h-285l-49 -121h-184l291 750h168l292 -750h-184zM308 281h155l-78 191z" />
    <glyph glyph-name="Acircumflex" unicode="&#xc2;" horiz-adv-x="771" 
d="M386 957l-62 -96h-119l134 199h94l133 -199h-119zM577 0l-49 121h-285l-49 -121h-184l291 750h168l292 -750h-184zM308 281h155l-78 191z" />
    <glyph glyph-name="Atilde" unicode="&#xc3;" horiz-adv-x="771" 
d="M316 887q-17 0 -22.5 -12t-5.5 -41h-119q0 85 36.5 131t86.5 46q34 0 88 -26.5t73 -26.5q17 0 22.5 12t5.5 41h119q0 -85 -36.5 -131t-86.5 -46q-33 0 -87.5 26.5t-73.5 26.5zM577 0l-49 121h-285l-49 -121h-184l291 750h168l292 -750h-184zM308 281h155l-78 191z" />
    <glyph glyph-name="Adieresis" unicode="&#xc4;" horiz-adv-x="771" 
d="M269 865q-39 0 -67 28t-28 68q0 38 28 65t67 27q40 0 68 -27t28 -65q0 -40 -28 -68t-68 -28zM513 865q-39 0 -67 28t-28 68q0 38 28 65t67 27q40 0 68 -27t28 -65q0 -40 -28 -68t-68 -28zM577 0l-49 121h-285l-49 -121h-184l291 750h168l292 -750h-184zM308 281h155
l-78 191z" />
    <glyph glyph-name="Aring" unicode="&#xc5;" horiz-adv-x="771" 
d="M384 806q-59 0 -101 40.5t-42 103.5t42 103.5t101 40.5q61 0 103 -40.5t42 -103.5t-42 -103.5t-103 -40.5zM384 1000q-20 0 -35 -15t-15 -35q0 -21 15 -36t35 -15q21 0 36 15t15 36q0 20 -15 35t-36 15zM577 0l-49 121h-285l-49 -121h-184l291 750h168l292 -750h-184z
M308 281h155l-78 191z" />
    <glyph glyph-name="AE" unicode="&#xc6;" horiz-adv-x="1095" 
d="M700 160h365v-160h-558v121h-264l-49 -121h-184l291 750h249h498v-160h-348v-124h285v-161h-285v-145zM308 281h199v309h-74z" />
    <glyph glyph-name="Ccedilla" unicode="&#xc7;" horiz-adv-x="786" 
d="M441 155q62 0 108 32t72 77l135 -85q-37 -74 -108 -121t-155 -59l-34 -50q42 2 64.5 -17t22.5 -55t-32 -60t-71 -24q-62 0 -98 29l44 53q14 -11 33 -11q31 0 31 23q0 22 -31 22q-19 0 -33 -11l-27 43l41 55q-149 13 -256 122t-107 257q0 158 119 269t279 111
q99 0 187 -48t131 -138l-135 -84q-24 46 -70.5 78t-109.5 32q-97 0 -152.5 -61t-55.5 -159t55.5 -159t152.5 -61z" />
    <glyph glyph-name="Egrave" unicode="&#xc8;" horiz-adv-x="648" 
d="M363 861h-119l-105 133l130 50zM618 160v-160h-558v750h541v-160h-348v-124h285v-161h-285v-145h365z" />
    <glyph glyph-name="Eacute" unicode="&#xc9;" horiz-adv-x="648" 
d="M228 861l94 183l130 -50l-105 -133h-119zM618 160v-160h-558v750h541v-160h-348v-124h285v-161h-285v-145h365z" />
    <glyph glyph-name="Ecircumflex" unicode="&#xca;" horiz-adv-x="648" 
d="M473 861h-119l-61 96l-62 -96h-119l134 199h94zM618 160v-160h-558v750h541v-160h-348v-124h285v-161h-285v-145h365z" />
    <glyph glyph-name="Edieresis" unicode="&#xcb;" horiz-adv-x="648" 
d="M272 961q0 -40 -28 -68t-68 -28q-39 0 -67 28t-28 68q0 38 28 65t67 27q40 0 68 -27t28 -65zM516 961q0 -40 -28 -68t-68 -28q-39 0 -67 28t-28 68q0 38 28 65t67 27q40 0 68 -27t28 -65zM618 160v-160h-558v750h541v-160h-348v-124h285v-161h-285v-145h365z" />
    <glyph glyph-name="Igrave" unicode="&#xcc;" horiz-adv-x="293" 
d="M226 861h-119l-105 133l130 50zM253 0h-193v750h193v-750z" />
    <glyph glyph-name="Iacute" unicode="&#xcd;" horiz-adv-x="293" 
d="M91 861l94 183l130 -50l-105 -133h-119zM253 0h-193v750h193v-750z" />
    <glyph glyph-name="Icircumflex" unicode="&#xce;" horiz-adv-x="293" 
d="M336 861h-119l-61 96l-62 -96h-119l134 199h94zM253 0h-193v750h193v-750z" />
    <glyph glyph-name="Idieresis" unicode="&#xcf;" horiz-adv-x="293" 
d="M136 961q0 -40 -28 -68t-68 -28q-39 0 -67 28t-28 68q0 38 28 65t67 27q40 0 68 -27t28 -65zM380 961q0 -40 -28 -68t-68 -28q-39 0 -67 28t-28 68q0 38 28 65t67 27q40 0 68 -27t28 -65zM253 0h-193v750h193v-750z" />
    <glyph glyph-name="Ntilde" unicode="&#xd1;" horiz-adv-x="792" 
d="M344 887q-17 0 -22.5 -12t-5.5 -41h-119q0 85 36.5 131t86.5 46q34 0 88 -26.5t73 -26.5q17 0 22.5 12t5.5 41h119q0 -85 -36.5 -131t-86.5 -46q-33 0 -88 26.5t-73 26.5zM735 0h-187l-295 427v-427h-193v750h186l297 -427v427h192v-750z" />
    <glyph glyph-name="Ograve" unicode="&#xd2;" horiz-adv-x="872" 
d="M507 861h-119l-105 133l130 50zM438 755q173 0 285 -103.5t112 -276.5t-112 -276.5t-285 -103.5q-174 0 -286 103.5t-112 276.5t112 276.5t286 103.5zM438 595q-94 0 -149.5 -59.5t-55.5 -160.5q0 -102 55.5 -161t149.5 -59t149.5 59t55.5 161q0 101 -56 160.5t-149 59.5
z" />
    <glyph glyph-name="Oacute" unicode="&#xd3;" horiz-adv-x="872" 
d="M372 861l94 183l130 -50l-105 -133h-119zM438 755q173 0 285 -103.5t112 -276.5t-112 -276.5t-285 -103.5q-174 0 -286 103.5t-112 276.5t112 276.5t286 103.5zM438 595q-94 0 -149.5 -59.5t-55.5 -160.5q0 -102 55.5 -161t149.5 -59t149.5 59t55.5 161q0 101 -56 160.5
t-149 59.5z" />
    <glyph glyph-name="Ocircumflex" unicode="&#xd4;" horiz-adv-x="872" 
d="M617 861h-119l-61 96l-62 -96h-119l134 199h94zM438 755q173 0 285 -103.5t112 -276.5t-112 -276.5t-285 -103.5q-174 0 -286 103.5t-112 276.5t112 276.5t286 103.5zM438 595q-94 0 -149.5 -59.5t-55.5 -160.5q0 -102 55.5 -161t149.5 -59t149.5 59t55.5 161
q0 101 -56 160.5t-149 59.5z" />
    <glyph glyph-name="Otilde" unicode="&#xd5;" horiz-adv-x="872" 
d="M367 887q-17 0 -22.5 -12t-5.5 -41h-119q0 85 36.5 131t86.5 46q33 0 88 -26.5t73 -26.5q17 0 22.5 12t5.5 41h119q0 -85 -36.5 -131t-86.5 -46q-34 0 -88 26.5t-73 26.5zM438 755q173 0 285 -103.5t112 -276.5t-112 -276.5t-285 -103.5q-174 0 -286 103.5t-112 276.5
t112 276.5t286 103.5zM438 595q-94 0 -149.5 -59.5t-55.5 -160.5q0 -102 55.5 -161t149.5 -59t149.5 59t55.5 161q0 101 -56 160.5t-149 59.5z" />
    <glyph glyph-name="Odieresis" unicode="&#xd6;" horiz-adv-x="872" 
d="M416 961q0 -40 -28 -68t-68 -28q-39 0 -67 28t-28 68q0 38 28 65t67 27q40 0 68 -27t28 -65zM660 961q0 -40 -28 -68t-68 -28q-39 0 -67 28t-28 68q0 38 28 65t67 27q40 0 68 -27t28 -65zM438 755q173 0 285 -103.5t112 -276.5t-112 -276.5t-285 -103.5
q-174 0 -286 103.5t-112 276.5t112 276.5t286 103.5zM438 595q-94 0 -149.5 -59.5t-55.5 -160.5q0 -102 55.5 -161t149.5 -59t149.5 59t55.5 161q0 101 -56 160.5t-149 59.5z" />
    <glyph glyph-name="multiply" unicode="&#xd7;" horiz-adv-x="499" 
d="M249 141l-84 -85l-107 107l85 84l-85 85l107 106l84 -84l85 84l106 -106l-84 -85l84 -84l-106 -107z" />
    <glyph glyph-name="Ugrave" unicode="&#xd9;" horiz-adv-x="732" 
d="M463 861h-119l-105 133l130 50zM692 750v-451q0 -42 -7 -80.5t-28 -82t-54.5 -75t-91.5 -52.5t-134 -21t-134 21t-92 52.5t-55 75t-28.5 82.5t-7.5 80v451h193v-451q0 -19 3.5 -38t14 -47.5t38 -46.5t68.5 -18q33 0 57.5 13t36.5 30t19 41t8 37.5t1 28.5v451h193z" />
    <glyph glyph-name="Uacute" unicode="&#xda;" horiz-adv-x="732" 
d="M328 861l94 183l130 -50l-105 -133h-119zM692 750v-451q0 -42 -7 -80.5t-28 -82t-54.5 -75t-91.5 -52.5t-134 -21t-134 21t-92 52.5t-55 75t-28.5 82.5t-7.5 80v451h193v-451q0 -19 3.5 -38t14 -47.5t38 -46.5t68.5 -18q33 0 57.5 13t36.5 30t19 41t8 37.5t1 28.5v451
h193z" />
    <glyph glyph-name="Ucircumflex" unicode="&#xdb;" horiz-adv-x="732" 
d="M573 861h-119l-61 96l-62 -96h-119l134 199h94zM692 750v-451q0 -42 -7 -80.5t-28 -82t-54.5 -75t-91.5 -52.5t-134 -21t-134 21t-92 52.5t-55 75t-28.5 82.5t-7.5 80v451h193v-451q0 -19 3.5 -38t14 -47.5t38 -46.5t68.5 -18q33 0 57.5 13t36.5 30t19 41t8 37.5t1 28.5
v451h193z" />
    <glyph glyph-name="Udieresis" unicode="&#xdc;" horiz-adv-x="732" 
d="M372 961q0 -40 -28 -68t-68 -28q-39 0 -67 28t-28 68q0 38 28 65t67 27q40 0 68 -27t28 -65zM616 961q0 -40 -28 -68t-68 -28q-39 0 -67 28t-28 68q0 38 28 65t67 27q40 0 68 -27t28 -65zM692 750v-451q0 -42 -7 -80.5t-28 -82t-54.5 -75t-91.5 -52.5t-134 -21t-134 21
t-92 52.5t-55 75t-28.5 82.5t-7.5 80v451h193v-451q0 -19 3.5 -38t14 -47.5t38 -46.5t68.5 -18q33 0 57.5 13t36.5 30t19 41t8 37.5t1 28.5v451h193z" />
    <glyph glyph-name="Yacute" unicode="&#xdd;" horiz-adv-x="784" 
d="M312 861l94 183l130 -50l-105 -133h-119zM774 750l-286 -472v-278h-192v278l-286 472h202l180 -292l182 292h200z" />
    <glyph glyph-name="Thorn" unicode="&#xde;" horiz-adv-x="670" 
d="M640 372q0 -123 -80.5 -204.5t-218.5 -81.5h-98v-86h-193v750h188v-92h103q139 0 219 -82t80 -204zM322 247q60 0 92.5 35.5t32.5 89.5t-32.5 90t-92.5 36h-79v-251h79z" />
    <glyph glyph-name="germandbls" unicode="&#xdf;" horiz-adv-x="705" 
d="M307 209q4 -3 24.5 -21t35 -25.5t33.5 -7.5q36 0 54 23t18 62q0 19 -7.5 33.5t-16 23.5t-26.5 15.5t-29 9.5t-34 4.5t-29.5 1.5h-27.5v115q52 0 80.5 22t28.5 59q0 27 -17.5 49t-52.5 22q-98 0 -98 -180v-415h-193v415q0 157 81 248.5t200 91.5q118 0 195.5 -50
t77.5 -155q0 -109 -96 -150q65 -13 111 -66.5t46 -126.5q0 -40 -11 -75.5t-35 -67.5t-67.5 -50.5t-102.5 -18.5q-95 0 -142 62v152z" />
    <glyph glyph-name="agrave" unicode="&#xe0;" horiz-adv-x="575" 
d="M403 614h-119l-105 133l130 50zM318 520q217 0 217 -226v-294h-190v56q-10 -16 -20 -27t-40 -22.5t-73 -11.5q-82 0 -122 40.5t-40 109.5q0 90 58.5 128.5t168.5 38.5h68q0 60 -59 60q-47 0 -88 -36l-105 94q88 90 225 90zM345 171v16h-39q-38 0 -52 -8.5t-14 -30.5
q0 -39 49 -39q56 0 56 62z" />
    <glyph glyph-name="aacute" unicode="&#xe1;" horiz-adv-x="575" 
d="M268 614l94 183l130 -50l-105 -133h-119zM318 520q217 0 217 -226v-294h-190v56q-10 -16 -20 -27t-40 -22.5t-73 -11.5q-82 0 -122 40.5t-40 109.5q0 90 58.5 128.5t168.5 38.5h68q0 60 -59 60q-47 0 -88 -36l-105 94q88 90 225 90zM345 171v16h-39q-38 0 -52 -8.5
t-14 -30.5q0 -39 49 -39q56 0 56 62z" />
    <glyph glyph-name="acircumflex" unicode="&#xe2;" horiz-adv-x="575" 
d="M513 614h-119l-61 96l-62 -96h-119l134 199h94zM318 520q217 0 217 -226v-294h-190v56q-10 -16 -20 -27t-40 -22.5t-73 -11.5q-82 0 -122 40.5t-40 109.5q0 90 58.5 128.5t168.5 38.5h68q0 60 -59 60q-47 0 -88 -36l-105 94q88 90 225 90zM345 171v16h-39q-38 0 -52 -8.5
t-14 -30.5q0 -39 49 -39q56 0 56 62z" />
    <glyph glyph-name="atilde" unicode="&#xe3;" horiz-adv-x="575" 
d="M264 640q-17 0 -22.5 -12t-5.5 -41h-119q0 85 36.5 131t86.5 46q34 0 88 -26.5t73 -26.5q17 0 22.5 12t5.5 41h119q0 -85 -36.5 -131t-86.5 -46q-33 0 -88 26.5t-73 26.5zM318 520q217 0 217 -226v-294h-190v56q-10 -16 -20 -27t-40 -22.5t-73 -11.5q-82 0 -122 40.5
t-40 109.5q0 90 58.5 128.5t168.5 38.5h68q0 60 -59 60q-47 0 -88 -36l-105 94q88 90 225 90zM345 171v16h-39q-38 0 -52 -8.5t-14 -30.5q0 -39 49 -39q56 0 56 62z" />
    <glyph glyph-name="adieresis" unicode="&#xe4;" horiz-adv-x="575" 
d="M312 714q0 -40 -28 -68t-68 -28q-39 0 -67 28t-28 68q0 38 28 65t67 27q40 0 68 -27t28 -65zM556 714q0 -40 -28 -68t-68 -28q-39 0 -67 28t-28 68q0 38 28 65t67 27q40 0 68 -27t28 -65zM318 520q217 0 217 -226v-294h-190v56q-10 -16 -20 -27t-40 -22.5t-73 -11.5
q-82 0 -122 40.5t-40 109.5q0 90 58.5 128.5t168.5 38.5h68q0 60 -59 60q-47 0 -88 -36l-105 94q88 90 225 90zM345 171v16h-39q-38 0 -52 -8.5t-14 -30.5q0 -39 49 -39q56 0 56 62z" />
    <glyph glyph-name="aring" unicode="&#xe5;" horiz-adv-x="575" 
d="M332 847q61 0 103 -40.5t42 -103.5t-42 -103.5t-103 -40.5q-59 0 -101 40.5t-42 103.5t42 103.5t101 40.5zM332 753q-20 0 -35 -15t-15 -35q0 -21 15 -36t35 -15q21 0 36 15t15 36q0 20 -15 35t-36 15zM318 520q217 0 217 -226v-294h-190v56q-10 -16 -20 -27t-40 -22.5
t-73 -11.5q-82 0 -122 40.5t-40 109.5q0 90 58.5 128.5t168.5 38.5h68q0 60 -59 60q-47 0 -88 -36l-105 94q88 90 225 90zM345 171v16h-39q-38 0 -52 -8.5t-14 -30.5q0 -39 49 -39q56 0 56 62z" />
    <glyph glyph-name="ae" unicode="&#xe6;" horiz-adv-x="974" 
d="M954 256v-54l-326 5q0 -31 27.5 -48t64.5 -17q24 0 52 10t43 28l113 -103q-86 -82 -222 -82q-100 0 -171 55v-50h-190v56q-10 -16 -20 -27t-40 -22.5t-73 -11.5q-82 0 -122 40.5t-40 109.5q0 90 58.5 128.5t168.5 38.5h68q0 60 -59 60q-47 0 -88 -36l-105 94
q88 90 225 90q127 0 181 -80q70 80 192 80q121 0 192 -74t71 -190zM626 307h139q0 29 -21 47t-53 18q-30 0 -47.5 -16.5t-17.5 -48.5zM345 171v16h-39q-38 0 -52 -8.5t-14 -30.5q0 -39 49 -39q56 0 56 62z" />
    <glyph glyph-name="ccedilla" unicode="&#xe7;" horiz-adv-x="511" 
d="M302 142q18 0 29 1.5t30 16.5t34 44l109 -97q-60 -91 -162 -108l-34 -50q42 2 64.5 -17t22.5 -55t-32 -60t-71 -24q-62 0 -98 29l44 53q14 -11 33 -11q31 0 31 23q0 22 -31 22q-19 0 -33 -11l-27 43l42 56q-98 12 -164 85.5t-66 173.5q0 109 76.5 186.5t185.5 77.5
q81 0 132 -28t87 -84l-109 -97q-33 61 -93 61q-44 0 -66.5 -32.5t-22.5 -83.5q0 -50 22.5 -82t66.5 -32z" />
    <glyph glyph-name="egrave" unicode="&#xe8;" horiz-adv-x="571" 
d="M367 614h-119l-105 133l130 50zM558 202l-327 5q0 -31 27.5 -48t64.5 -17q24 0 52 10t43 28l113 -103q-85 -82 -221 -82q-123 0 -196.5 77.5t-73.5 190.5q0 112 69 184.5t186 72.5q121 0 192 -74t71 -190v-54zM368 307q0 29 -20.5 47t-52.5 18q-31 0 -48 -16.5t-17 -48.5
h138z" />
    <glyph glyph-name="eacute" unicode="&#xe9;" horiz-adv-x="571" 
d="M232 614l94 183l130 -50l-105 -133h-119zM558 202l-327 5q0 -31 27.5 -48t64.5 -17q24 0 52 10t43 28l113 -103q-85 -82 -221 -82q-123 0 -196.5 77.5t-73.5 190.5q0 112 69 184.5t186 72.5q121 0 192 -74t71 -190v-54zM368 307q0 29 -20.5 47t-52.5 18q-31 0 -48 -16.5
t-17 -48.5h138z" />
    <glyph glyph-name="ecircumflex" unicode="&#xea;" horiz-adv-x="571" 
d="M477 614h-119l-61 96l-62 -96h-119l134 199h94zM558 202l-327 5q0 -31 27.5 -48t64.5 -17q24 0 52 10t43 28l113 -103q-85 -82 -221 -82q-123 0 -196.5 77.5t-73.5 190.5q0 112 69 184.5t186 72.5q121 0 192 -74t71 -190v-54zM368 307q0 29 -20.5 47t-52.5 18
q-31 0 -48 -16.5t-17 -48.5h138z" />
    <glyph glyph-name="edieresis" unicode="&#xeb;" horiz-adv-x="571" 
d="M276 714q0 -40 -28 -68t-68 -28q-39 0 -67 28t-28 68q0 38 28 65t67 27q40 0 68 -27t28 -65zM520 714q0 -40 -28 -68t-68 -28q-39 0 -67 28t-28 68q0 38 28 65t67 27q40 0 68 -27t28 -65zM558 202l-327 5q0 -31 27.5 -48t64.5 -17q24 0 52 10t43 28l113 -103
q-85 -82 -221 -82q-123 0 -196.5 77.5t-73.5 190.5q0 112 69 184.5t186 72.5q121 0 192 -74t71 -190v-54zM368 307q0 29 -20.5 47t-52.5 18q-31 0 -48 -16.5t-17 -48.5h138z" />
    <glyph glyph-name="igrave" unicode="&#xec;" horiz-adv-x="260" 
d="M207 626h-119l-105 133l130 50zM230 0h-190v515h190v-515z" />
    <glyph glyph-name="iacute" unicode="&#xed;" horiz-adv-x="260" 
d="M72 626l94 183l130 -50l-105 -133h-119zM230 0h-190v515h190v-515z" />
    <glyph glyph-name="icircumflex" unicode="&#xee;" horiz-adv-x="260" 
d="M317 626h-119l-61 96l-62 -96h-119l134 199h94zM230 0h-190v515h190v-515z" />
    <glyph glyph-name="idieresis" unicode="&#xef;" horiz-adv-x="260" 
d="M117 726q0 -40 -28 -68t-68 -28q-39 0 -67 28t-28 68q0 38 28 65t67 27q40 0 68 -27t28 -65zM361 726q0 -40 -28 -68t-68 -28q-39 0 -67 28t-28 68q0 38 28 65t67 27q40 0 68 -27t28 -65zM230 0h-190v515h190v-515z" />
    <glyph glyph-name="eth" unicode="&#xf0;" 
 />
    <glyph glyph-name="ntilde" unicode="&#xf1;" horiz-adv-x="533" 
d="M188 652q-17 0 -22.5 -12t-5.5 -41h-119q0 85 36.5 131t86.5 46q34 0 88 -26.5t73 -26.5q17 0 22.5 12t5.5 41h119q0 -85 -36.5 -131t-86.5 -46q-33 0 -87.5 26.5t-73.5 26.5zM509 0h-178v307q0 84 -60 84q-32 0 -46 -19.5t-14 -64.5v-307h-178v515h178v-46
q21 26 58 38.5t66 12.5q93 0 133 -53.5t40 -163.5z" />
    <glyph glyph-name="ograve" unicode="&#xf2;" horiz-adv-x="577" 
d="M356 614h-119l-105 133l130 50zM290 520q115 0 194.5 -68t79.5 -196q0 -127 -79.5 -194t-194.5 -67t-194 66.5t-79 194.5t79 196t194 68zM290 372q-84 0 -84 -116q0 -114 84 -114t84 114q0 116 -84 116z" />
    <glyph glyph-name="oacute" unicode="&#xf3;" horiz-adv-x="577" 
d="M221 614l94 183l130 -50l-105 -133h-119zM290 520q115 0 194.5 -68t79.5 -196q0 -127 -79.5 -194t-194.5 -67t-194 66.5t-79 194.5t79 196t194 68zM290 372q-84 0 -84 -116q0 -114 84 -114t84 114q0 116 -84 116z" />
    <glyph glyph-name="ocircumflex" unicode="&#xf4;" horiz-adv-x="577" 
d="M466 614h-119l-61 96l-62 -96h-119l134 199h94zM290 520q115 0 194.5 -68t79.5 -196q0 -127 -79.5 -194t-194.5 -67t-194 66.5t-79 194.5t79 196t194 68zM290 372q-84 0 -84 -116q0 -114 84 -114t84 114q0 116 -84 116z" />
    <glyph glyph-name="otilde" unicode="&#xf5;" horiz-adv-x="577" 
d="M216 640q-17 0 -22.5 -12t-5.5 -41h-119q0 85 36.5 131t86.5 46q33 0 87.5 -26.5t73.5 -26.5q17 0 22.5 12t5.5 41h119q0 -85 -36.5 -131t-86.5 -46q-33 0 -88 26.5t-73 26.5zM290 520q115 0 194.5 -68t79.5 -196q0 -127 -79.5 -194t-194.5 -67t-194 66.5t-79 194.5
t79 196t194 68zM290 372q-84 0 -84 -116q0 -114 84 -114t84 114q0 116 -84 116z" />
    <glyph glyph-name="odieresis" unicode="&#xf6;" horiz-adv-x="577" 
d="M265 714q0 -40 -28 -68t-68 -28q-39 0 -67 28t-28 68q0 38 28 65t67 27q40 0 68 -27t28 -65zM509 714q0 -40 -28 -68t-68 -28q-39 0 -67 28t-28 68q0 38 28 65t67 27q40 0 68 -27t28 -65zM290 520q115 0 194.5 -68t79.5 -196q0 -127 -79.5 -194t-194.5 -67t-194 66.5
t-79 194.5t79 196t194 68zM290 372q-84 0 -84 -116q0 -114 84 -114t84 114q0 116 -84 116z" />
    <glyph glyph-name="divide" unicode="&#xf7;" 
 />
    <glyph glyph-name="ugrave" unicode="&#xf9;" horiz-adv-x="533" 
d="M350 614h-119l-105 133l130 50zM33 515h178v-308q0 -44 14.5 -63.5t45.5 -19.5q33 0 46.5 19t13.5 64v308h178v-515h-178v46q-20 -26 -57 -38.5t-66 -12.5q-93 0 -133.5 53t-40.5 163z" />
    <glyph glyph-name="uacute" unicode="&#xfa;" horiz-adv-x="533" 
d="M215 614l94 183l130 -50l-105 -133h-119zM33 515h178v-308q0 -44 14.5 -63.5t45.5 -19.5q33 0 46.5 19t13.5 64v308h178v-515h-178v46q-20 -26 -57 -38.5t-66 -12.5q-93 0 -133.5 53t-40.5 163z" />
    <glyph glyph-name="ucircumflex" unicode="&#xfb;" horiz-adv-x="533" 
d="M460 614h-119l-61 96l-62 -96h-119l134 199h94zM33 515h178v-308q0 -44 14.5 -63.5t45.5 -19.5q33 0 46.5 19t13.5 64v308h178v-515h-178v46q-20 -26 -57 -38.5t-66 -12.5q-93 0 -133.5 53t-40.5 163z" />
    <glyph glyph-name="udieresis" unicode="&#xfc;" horiz-adv-x="533" 
d="M259 714q0 -40 -28 -68t-68 -28q-39 0 -67 28t-28 68q0 38 28 65t67 27q40 0 68 -27t28 -65zM503 714q0 -40 -28 -68t-68 -28q-39 0 -67 28t-28 68q0 38 28 65t67 27q40 0 68 -27t28 -65zM33 515h178v-308q0 -44 14.5 -63.5t45.5 -19.5q33 0 46.5 19t13.5 64v308h178
v-515h-178v46q-20 -26 -57 -38.5t-66 -12.5q-93 0 -133.5 53t-40.5 163z" />
    <glyph glyph-name="yacute" unicode="&#xfd;" horiz-adv-x="629" 
d="M258 626l94 183l130 -50l-105 -133h-119zM619 515l-155 -379q-43 -106 -71.5 -164t-61 -96t-65 -49.5t-82.5 -10.5q-34 0 -74.5 16.5t-63.5 46.5l25 113q60 -30 96 -30q72 0 23 127l-163 426h187l109 -321l109 321h187z" />
    <glyph glyph-name="thorn" unicode="&#xfe;" horiz-adv-x="632" 
d="M396 -5q-105 0 -166 79v-259h-190v965h190v-340q61 80 166 80q93 0 154.5 -67.5t61.5 -195.5q0 -122 -62 -192t-154 -70zM347 372q-34 0 -55 -32.5t-21 -82.5q0 -51 21 -83t55 -32t54.5 32t20.5 83t-20.5 83t-54.5 32z" />
    <glyph glyph-name="ydieresis" unicode="&#xff;" horiz-adv-x="629" 
d="M302 726q0 -40 -28 -68t-68 -28q-39 0 -67 28t-28 68q0 38 28 65t67 27q40 0 68 -27t28 -65zM546 726q0 -40 -28 -68t-68 -28q-39 0 -67 28t-28 68q0 38 28 65t67 27q40 0 68 -27t28 -65zM619 515l-155 -379q-43 -106 -71.5 -164t-61 -96t-65 -49.5t-82.5 -10.5
q-34 0 -74.5 16.5t-63.5 46.5l25 113q60 -30 96 -30q72 0 23 127l-163 426h187l109 -321l109 321h187z" />
    <glyph glyph-name="Amacron" unicode="&#x100;" horiz-adv-x="771" 
d="M580 974v-150h-389v150h389zM577 0l-49 121h-285l-49 -121h-184l291 750h168l292 -750h-184zM308 281h155l-78 191z" />
    <glyph glyph-name="amacron" unicode="&#x101;" horiz-adv-x="575" 
d="M527 577h-389v150h389v-150zM318 520q217 0 217 -226v-294h-190v56q-10 -16 -20 -27t-40 -22.5t-73 -11.5q-82 0 -122 40.5t-40 109.5q0 90 58.5 128.5t168.5 38.5h68q0 60 -59 60q-47 0 -88 -36l-105 94q88 90 225 90zM345 171v16h-39q-38 0 -52 -8.5t-14 -30.5
q0 -39 49 -39q56 0 56 62z" />
    <glyph glyph-name="Abreve" unicode="&#x102;" horiz-adv-x="771" 
d="M385 864q-77 0 -136.5 49.5t-59.5 146.5h119q0 -87 77 -87t77 87h120q0 -97 -59.5 -146.5t-137.5 -49.5zM577 0l-49 121h-285l-49 -121h-184l291 750h168l292 -750h-184zM308 281h155l-78 191z" />
    <glyph glyph-name="abreve" unicode="&#x103;" horiz-adv-x="575" 
d="M530 813q0 -97 -59.5 -146.5t-137.5 -49.5q-77 0 -136.5 49.5t-59.5 146.5h119q0 -87 77 -87t77 87h120zM318 520q217 0 217 -226v-294h-190v56q-10 -16 -20 -27t-40 -22.5t-73 -11.5q-82 0 -122 40.5t-40 109.5q0 90 58.5 128.5t168.5 38.5h68q0 60 -59 60
q-47 0 -88 -36l-105 94q88 90 225 90zM345 171v16h-39q-38 0 -52 -8.5t-14 -30.5q0 -39 49 -39q56 0 56 62z" />
    <glyph glyph-name="Aogonek" unicode="&#x104;" horiz-adv-x="771" 
d="M657 -66q0 -18 18 -31.5t45 -13.5v-86q-87 0 -132.5 29.5t-45.5 77.5q0 50 66 90h-31l-49 121h-285l-49 -121h-184l291 750h168l292 -750h-61q-43 -43 -43 -66zM308 281h155l-78 191z" />
    <glyph glyph-name="aogonek" unicode="&#x105;" horiz-adv-x="575" 
d="M508 0q-43 -43 -43 -66q0 -18 18 -31.5t45 -13.5v-86q-87 0 -132.5 29.5t-45.5 77.5q0 50 66 90h-71v56q-10 -16 -20 -27t-40 -22.5t-73 -11.5q-82 0 -122 40.5t-40 109.5q0 90 58.5 128.5t168.5 38.5h68q0 60 -59 60q-47 0 -88 -36l-105 94q88 90 225 90q217 0 217 -226
v-294h-27zM345 171v16h-39q-38 0 -52 -8.5t-14 -30.5q0 -39 49 -39q56 0 56 62z" />
    <glyph glyph-name="Cacute" unicode="&#x106;" horiz-adv-x="786" 
d="M373 861l94 183l130 -50l-105 -133h-119zM756 179q-44 -86 -132 -135t-186 -49q-160 0 -279 111t-119 269t119 269t279 111q99 0 187 -48t131 -138l-135 -84q-24 46 -70.5 78t-109.5 32q-97 0 -152.5 -61t-55.5 -159t55.5 -159t152.5 -61q62 0 108 32t72 77z" />
    <glyph glyph-name="cacute" unicode="&#x107;" horiz-adv-x="511" 
d="M221 626l94 183l130 -50l-105 -133h-119zM504 107q-36 -56 -87 -84t-132 -28q-109 0 -185.5 76t-76.5 185t76.5 186.5t185.5 77.5q81 0 132 -28t87 -84l-109 -97q-33 61 -93 61q-44 0 -66.5 -32.5t-22.5 -83.5q0 -50 22.5 -82t66.5 -32q18 0 29 1.5t30 16.5t34 44z" />
    <glyph glyph-name="Ccaron" unicode="&#x10c;" horiz-adv-x="786" 
d="M618 1060l-133 -199h-94l-134 199h119l62 -96l61 96h119zM756 179q-44 -86 -132 -135t-186 -49q-160 0 -279 111t-119 269t119 269t279 111q99 0 187 -48t131 -138l-135 -84q-24 46 -70.5 78t-109.5 32q-97 0 -152.5 -61t-55.5 -159t55.5 -159t152.5 -61q62 0 108 32
t72 77z" />
    <glyph glyph-name="ccaron" unicode="&#x10d;" horiz-adv-x="511" 
d="M465 825l-133 -199h-94l-134 199h119l62 -96l61 96h119zM504 107q-36 -56 -87 -84t-132 -28q-109 0 -185.5 76t-76.5 185t76.5 186.5t185.5 77.5q81 0 132 -28t87 -84l-109 -97q-33 61 -93 61q-44 0 -66.5 -32.5t-22.5 -83.5q0 -50 22.5 -82t66.5 -32q18 0 29 1.5
t30 16.5t34 44z" />
    <glyph glyph-name="Dcaron" unicode="&#x10e;" horiz-adv-x="750" 
d="M508 1060l-133 -199h-94l-134 199h119l62 -96l61 96h119zM727 375q0 -155 -111 -264.5t-266 -110.5h-307v750h307q155 -1 266 -111t111 -264zM363 160q43 1 77.5 23.5t54 56.5t29.5 69t10 66q0 72 -45 142t-126 73h-127v-430h127z" />
    <glyph glyph-name="dcaron" unicode="&#x10f;" horiz-adv-x="830" 
d="M246 520q113 0 166 -73v333h190v-780h-190v68q-54 -73 -166 -73q-93 0 -154.5 67.5t-61.5 195.5q0 122 62 192t154 70zM804 515h-161l-15 265h191zM316 142q45 0 70.5 32t25.5 84t-25.5 83.5t-70.5 31.5t-70.5 -31.5t-25.5 -83.5t25.5 -84t70.5 -32z" />
    <glyph glyph-name="Emacron" unicode="&#x112;" horiz-adv-x="648" 
d="M487 824h-389v150h389v-150zM618 160v-160h-558v750h541v-160h-348v-124h285v-161h-285v-145h365z" />
    <glyph glyph-name="emacron" unicode="&#x113;" horiz-adv-x="571" 
d="M491 577h-389v150h389v-150zM558 202l-327 5q0 -31 27.5 -48t64.5 -17q24 0 52 10t43 28l113 -103q-85 -82 -221 -82q-123 0 -196.5 77.5t-73.5 190.5q0 112 69 184.5t186 72.5q121 0 192 -74t71 -190v-54zM368 307q0 29 -20.5 47t-52.5 18q-31 0 -48 -16.5t-17 -48.5
h138z" />
    <glyph glyph-name="Edotaccent" unicode="&#x116;" horiz-adv-x="648" 
d="M389 961q0 -40 -28 -68t-68 -28q-39 0 -67 28t-28 68q0 38 28 65t67 27q40 0 68 -27t28 -65zM618 160v-160h-558v750h541v-160h-348v-124h285v-161h-285v-145h365z" />
    <glyph glyph-name="edotaccent" unicode="&#x117;" horiz-adv-x="571" 
d="M393 714q0 -40 -28 -68t-68 -28q-39 0 -67 28t-28 68q0 38 28 65t67 27q40 0 68 -27t28 -65zM558 202l-327 5q0 -31 27.5 -48t64.5 -17q24 0 52 10t43 28l113 -103q-85 -82 -221 -82q-123 0 -196.5 77.5t-73.5 190.5q0 112 69 184.5t186 72.5q121 0 192 -74t71 -190v-54z
M368 307q0 29 -20.5 47t-52.5 18q-31 0 -48 -16.5t-17 -48.5h138z" />
    <glyph glyph-name="Eogonek" unicode="&#x118;" horiz-adv-x="648" 
d="M568 0q-43 -43 -43 -66q0 -18 18 -31.5t45 -13.5v-86q-87 0 -132.5 29.5t-45.5 77.5q0 50 66 90h-416v750h541v-160h-348v-124h285v-161h-285v-145h365v-160h-50z" />
    <glyph glyph-name="eogonek" unicode="&#x119;" horiz-adv-x="571" 
d="M558 256v-54l-327 5q0 -31 27.5 -48t64.5 -17q24 0 52 10t43 28l113 -103q-70 -67 -169 -79q-51 -49 -51 -74q0 -18 18 -31.5t45 -13.5v-86q-87 0 -132.5 29.5t-45.5 77.5q0 53 77 97q-107 12 -170 87t-63 179q0 112 69 184.5t186 72.5q121 0 192 -74t71 -190zM230 307
h138q0 29 -20.5 47t-52.5 18q-31 0 -48 -16.5t-17 -48.5z" />
    <glyph glyph-name="Ecaron" unicode="&#x11a;" horiz-adv-x="648" 
d="M472 1060l-133 -199h-94l-134 199h119l62 -96l61 96h119zM618 160v-160h-558v750h541v-160h-348v-124h285v-161h-285v-145h365z" />
    <glyph glyph-name="ecaron" unicode="&#x11b;" horiz-adv-x="571" 
d="M477 813l-133 -199h-94l-134 199h119l62 -96l61 96h119zM558 202l-327 5q0 -31 27.5 -48t64.5 -17q24 0 52 10t43 28l113 -103q-85 -82 -221 -82q-123 0 -196.5 77.5t-73.5 190.5q0 112 69 184.5t186 72.5q121 0 192 -74t71 -190v-54zM368 307q0 29 -20.5 47t-52.5 18
q-31 0 -48 -16.5t-17 -48.5h138z" />
    <glyph glyph-name="Gcommaaccent" unicode="&#x122;" horiz-adv-x="885" 
d="M845 438v-438h-192v108q-27 -50 -89.5 -85t-145.5 -35q-151 0 -259.5 112.5t-108.5 274.5t115.5 273.5t277.5 111.5q86 0 170 -37t146 -106l-126 -127q-24 42 -78 76t-112 34q-52 0 -92 -21t-63 -54.5t-34.5 -71.5t-11.5 -78q0 -95 50 -160.5t151 -65.5q83 0 139.5 39
t56.5 107h-160v143h366zM546 -136q0 -36 -43 -92l-88 -108h-46l37 116q-23 11 -36.5 34t-13.5 50q0 39 27.5 66.5t66.5 27.5q40 0 68 -27.5t28 -66.5z" />
    <glyph glyph-name="gcommaaccent" unicode="&#x123;" horiz-adv-x="625" 
d="M349 557q-40 0 -68 27.5t-28 66.5q0 36 43 92l88 108h46l-37 -116q23 -11 36.5 -34t13.5 -50q0 -39 -27.5 -66.5t-66.5 -27.5zM406 515h189v-454q0 -67 -23.5 -117.5t-63.5 -78.5t-86.5 -41.5t-99.5 -13.5q-1 0 -16.5 -0.5t-28.5 0t-35.5 1.5t-45.5 5t-51 9.5t-59 16
t-62 24.5l83 122q19 -6 36 -11t30 -8.5t27 -5.5t22 -3.5t20.5 -2t16.5 -0.5h15.5h13.5q45 0 81.5 24t36.5 86q-55 -72 -167 -72q-92 0 -154 70t-62 192q0 128 61.5 195.5t154.5 67.5q112 0 167 -73v68zM309 142q46 0 71.5 31.5t25.5 83.5q0 51 -25.5 83t-71.5 32
q-45 0 -70.5 -32t-25.5 -83q0 -52 25.5 -83.5t70.5 -31.5z" />
    <glyph glyph-name="Imacron" unicode="&#x12a;" horiz-adv-x="293" 
d="M350 824h-389v150h389v-150zM253 0h-193v750h193v-750z" />
    <glyph glyph-name="imacron" unicode="&#x12b;" horiz-adv-x="260" 
d="M331 589h-389v150h389v-150zM230 0h-190v515h190v-515z" />
    <glyph glyph-name="Iogonek" unicode="&#x12e;" horiz-adv-x="293" 
d="M213 0q-53 -51 -53 -76q0 -18 18 -31.5t45 -13.5v-86q-87 0 -132.5 29.5t-45.5 77.5q0 55 83 100h-68v750h193v-750h-40z" />
    <glyph glyph-name="iogonek" unicode="&#x12f;" horiz-adv-x="260" 
d="M138 630q-39 0 -67 28t-28 68q0 38 28 65t67 27q40 0 68 -27t28 -65q0 -40 -28 -68t-68 -28zM40 0v515h190v-515h-24q-53 -51 -53 -76q0 -18 18 -31.5t45 -13.5v-86q-87 0 -132.5 29.5t-45.5 77.5q0 55 83 100h-81z" />
    <glyph glyph-name="dotlessi" unicode="&#x131;" horiz-adv-x="260" 
d="M230 0h-190v515h190v-515z" />
    <glyph glyph-name="Kcommaaccent" unicode="&#x136;" horiz-adv-x="811" 
d="M438 426l333 -426h-224l-252 322l-42 -35v-287h-193v750h193v-256l272 256h246zM444 -136q0 -36 -43 -92l-88 -108h-46l37 116q-23 11 -36.5 34t-13.5 50q0 39 27.5 66.5t66.5 27.5q40 0 68 -27.5t28 -66.5z" />
    <glyph glyph-name="kcommaaccent" unicode="&#x137;" horiz-adv-x="645" 
d="M244 204l-14 -12v-192h-190v780h190v-411l166 146h249l-255 -226l245 -289h-221zM396 -136q0 -36 -43 -92l-88 -108h-46l37 116q-23 11 -36.5 34t-13.5 50q0 39 27.5 66.5t66.5 27.5q40 0 68 -27.5t28 -66.5z" />
    <glyph glyph-name="Lacute" unicode="&#x139;" horiz-adv-x="556" 
d="M91 810l94 183l130 -50l-105 -133h-119zM526 160v-160h-466v750h193v-590h273z" />
    <glyph glyph-name="lacute" unicode="&#x13a;" horiz-adv-x="280" 
d="M48 820l94 183l130 -50l-105 -133h-119zM240 0h-190v780h190v-780z" />
    <glyph glyph-name="Lcommaaccent" unicode="&#x13b;" horiz-adv-x="556" 
d="M526 160v-160h-466v750h193v-590h273zM407 -136q0 -36 -43 -92l-88 -108h-46l37 116q-23 11 -36.5 34t-13.5 50q0 39 27.5 66.5t66.5 27.5q40 0 68 -27.5t28 -66.5z" />
    <glyph glyph-name="lcommaaccent" unicode="&#x13c;" horiz-adv-x="280" 
d="M240 0h-190v780h190v-780zM244 -136q0 -36 -43 -92l-88 -108h-46l37 116q-23 11 -36.5 34t-13.5 50q0 39 27.5 66.5t66.5 27.5q40 0 68 -27.5t28 -66.5z" />
    <glyph glyph-name="Lcaron" unicode="&#x13d;" horiz-adv-x="556" 
d="M494 515h-161l-15 265h191zM526 160v-160h-466v750h193v-590h273z" />
    <glyph glyph-name="lcaron" unicode="&#x13e;" horiz-adv-x="473" 
d="M240 0h-190v780h190v-780zM437 515h-160l-15 265h191z" />
    <glyph glyph-name="Nacute" unicode="&#x143;" horiz-adv-x="792" 
d="M348 861l94 183l130 -50l-105 -133h-119zM735 0h-187l-295 427v-427h-193v750h186l297 -427v427h192v-750z" />
    <glyph glyph-name="nacute" unicode="&#x144;" horiz-adv-x="533" 
d="M193 626l94 183l130 -50l-105 -133h-119zM509 0h-178v307q0 84 -60 84q-32 0 -46 -19.5t-14 -64.5v-307h-178v515h178v-46q21 26 58 38.5t66 12.5q93 0 133 -53.5t40 -163.5z" />
    <glyph glyph-name="Ncommaaccent" unicode="&#x145;" horiz-adv-x="792" 
d="M735 0h-187l-295 427v-427h-193v750h186l297 -427v427h192v-750zM508 -136q0 -36 -43 -92l-88 -108h-46l37 116q-23 11 -36.5 34t-13.5 50q0 39 27.5 66.5t66.5 27.5q40 0 68 -27.5t28 -66.5z" />
    <glyph glyph-name="ncommaaccent" unicode="&#x146;" horiz-adv-x="533" 
d="M509 0h-178v307q0 84 -60 84q-32 0 -46 -19.5t-14 -64.5v-307h-178v515h178v-46q21 26 58 38.5t66 12.5q93 0 133 -53.5t40 -163.5zM369 -136q0 -36 -43 -92l-88 -108h-46l37 116q-23 11 -36.5 34t-13.5 50q0 39 27.5 66.5t66.5 27.5q40 0 68 -27.5t28 -66.5z" />
    <glyph glyph-name="Ncaron" unicode="&#x147;" horiz-adv-x="792" 
d="M593 1060l-133 -199h-94l-134 199h119l62 -96l61 96h119zM735 0h-187l-295 427v-427h-193v750h186l297 -427v427h192v-750z" />
    <glyph glyph-name="ncaron" unicode="&#x148;" horiz-adv-x="533" 
d="M437 825l-133 -199h-94l-134 199h119l62 -96l61 96h119zM509 0h-178v307q0 84 -60 84q-32 0 -46 -19.5t-14 -64.5v-307h-178v515h178v-46q21 26 58 38.5t66 12.5q93 0 133 -53.5t40 -163.5z" />
    <glyph glyph-name="Eng" unicode="&#x14a;" 
 />
    <glyph glyph-name="eng" unicode="&#x14b;" 
 />
    <glyph glyph-name="Omacron" unicode="&#x14c;" horiz-adv-x="872" 
d="M631 824h-389v150h389v-150zM438 755q173 0 285 -103.5t112 -276.5t-112 -276.5t-285 -103.5q-174 0 -286 103.5t-112 276.5t112 276.5t286 103.5zM438 595q-94 0 -149.5 -59.5t-55.5 -160.5q0 -102 55.5 -161t149.5 -59t149.5 59t55.5 161q0 101 -56 160.5t-149 59.5z
" />
    <glyph glyph-name="omacron" unicode="&#x14d;" horiz-adv-x="577" 
d="M480 577h-389v150h389v-150zM290 520q115 0 194.5 -68t79.5 -196q0 -127 -79.5 -194t-194.5 -67t-194 66.5t-79 194.5t79 196t194 68zM290 372q-84 0 -84 -116q0 -114 84 -114t84 114q0 116 -84 116z" />
    <glyph glyph-name="Ohungarumlaut" unicode="&#x150;" horiz-adv-x="872" 
d="M246 861l94 183l130 -50l-105 -133h-119zM477 861l94 183l130 -50l-105 -133h-119zM438 755q173 0 285 -103.5t112 -276.5t-112 -276.5t-285 -103.5q-174 0 -286 103.5t-112 276.5t112 276.5t286 103.5zM438 595q-94 0 -149.5 -59.5t-55.5 -160.5q0 -102 55.5 -161
t149.5 -59t149.5 59t55.5 161q0 101 -56 160.5t-149 59.5z" />
    <glyph glyph-name="ohungarumlaut" unicode="&#x151;" horiz-adv-x="577" 
d="M95 614l94 183l130 -50l-105 -133h-119zM326 614l94 183l130 -50l-105 -133h-119zM290 520q115 0 194.5 -68t79.5 -196q0 -127 -79.5 -194t-194.5 -67t-194 66.5t-79 194.5t79 196t194 68zM290 372q-84 0 -84 -116q0 -114 84 -114t84 114q0 116 -84 116z" />
    <glyph glyph-name="OE" unicode="&#x152;" horiz-adv-x="1268" 
d="M913 160h365v-160h-558v96q-110 -101 -282 -101q-174 0 -286 103.5t-112 276.5t112 276.5t286 103.5q172 0 282 -101v96h541v-160h-348v-124h285v-161h-285v-145zM438 155q94 0 149.5 59t55.5 161q0 101 -56 160.5t-149 59.5q-94 0 -149.5 -59.5t-55.5 -160.5
q0 -102 55.5 -161t149.5 -59z" />
    <glyph glyph-name="oe" unicode="&#x153;" horiz-adv-x="972" 
d="M965 256v-54l-327 5q0 -30 27.5 -47.5t64.5 -17.5q25 0 53 10t43 28l112 -103q-85 -82 -221 -82q-133 0 -209 91q-75 -91 -218 -91q-115 0 -194 66.5t-79 194.5t79 196t194 68q136 0 213 -87q71 87 199 87q121 0 192 -74t71 -190zM290 142q84 0 84 114q0 116 -84 116
t-84 -116q0 -114 84 -114zM637 307h138q0 29 -20.5 47t-52.5 18q-30 0 -47.5 -16.5t-17.5 -48.5z" />
    <glyph glyph-name="Racute" unicode="&#x154;" horiz-adv-x="721" 
d="M255 861l94 183l130 -50l-105 -133h-119zM651 472q0 -73 -34 -134.5t-94 -99.5l161 -238h-212l-130 195h-89v-195h-193v750h306q120 1 202.5 -79.5t82.5 -198.5zM253 355h95q110 0 110 117q0 118 -110 118h-95v-235z" />
    <glyph glyph-name="racute" unicode="&#x155;" horiz-adv-x="437" 
d="M184 614l94 183l130 -50l-105 -133h-119zM405 340q-32 32 -77 32q-62 0 -83.5 -42t-21.5 -145v-185h-190v515h190v-84q14 47 43.5 68t80.5 21q52 0 80 -35z" />
    <glyph glyph-name="Rcommaaccent" unicode="&#x156;" horiz-adv-x="721" 
d="M651 472q0 -73 -34 -134.5t-94 -99.5l161 -238h-212l-130 195h-89v-195h-193v750h306q120 1 202.5 -79.5t82.5 -198.5zM253 355h95q110 0 110 117q0 118 -110 118h-95v-235zM465 -136q0 -36 -43 -92l-88 -108h-46l37 116q-23 11 -36.5 34t-13.5 50q0 39 27.5 66.5
t66.5 27.5q40 0 68 -27.5t28 -66.5z" />
    <glyph glyph-name="rcommaaccent" unicode="&#x157;" horiz-adv-x="437" 
d="M405 340q-32 32 -77 32q-62 0 -83.5 -42t-21.5 -145v-185h-190v515h190v-84q14 47 43.5 68t80.5 21q52 0 80 -35zM267 -136q0 -36 -43 -92l-88 -108h-46l37 116q-23 11 -36.5 34t-13.5 50q0 39 27.5 66.5t66.5 27.5q40 0 68 -27.5t28 -66.5z" />
    <glyph glyph-name="Rcaron" unicode="&#x158;" horiz-adv-x="721" 
d="M500 1060l-133 -199h-94l-134 199h119l62 -96l61 96h119zM651 472q0 -73 -34 -134.5t-94 -99.5l161 -238h-212l-130 195h-89v-195h-193v750h306q120 1 202.5 -79.5t82.5 -198.5zM253 355h95q110 0 110 117q0 118 -110 118h-95v-235z" />
    <glyph glyph-name="rcaron" unicode="&#x159;" horiz-adv-x="437" 
d="M429 813l-133 -199h-94l-134 199h119l62 -96l61 96h119zM405 340q-32 32 -77 32q-62 0 -83.5 -42t-21.5 -145v-185h-190v515h190v-84q14 47 43.5 68t80.5 21q52 0 80 -35z" />
    <glyph glyph-name="Sacute" unicode="&#x15a;" horiz-adv-x="664" 
d="M254 861l94 183l130 -50l-105 -133h-119zM370 467q140 -50 205.5 -106t65.5 -149q0 -106 -76.5 -165t-191.5 -59q-213 2 -343 139l126 124q2 -1 27 -21.5t37.5 -29t37.5 -23.5t49 -21.5t49 -6.5q39 -1 66 16.5t27 51.5q0 24 -16.5 42.5t-34 27t-59 25t-61.5 25.5
q-32 15 -50.5 24t-53 31t-54 42.5t-35.5 51.5t-16 65q0 57 24.5 99.5t65 65.5t84.5 33.5t90 10.5q95 0 179.5 -32.5t135.5 -83.5l-111 -121q-33 25 -87.5 51t-109.5 26q-30 0 -35 -1q-44 -9 -44 -50v-10.5t5.5 -12.5t15.5 -17t32.5 -18.5t55.5 -23.5z" />
    <glyph glyph-name="sacute" unicode="&#x15b;" horiz-adv-x="463" 
d="M171 626l94 183l130 -50l-105 -133h-119zM238 358q0 -12 12 -22.5t61 -34.5q70 -33 101 -69.5t31 -83.5q0 -75 -56.5 -114t-142.5 -39q-58 0 -127 28.5t-110 78.5l106 108q33 -36 65.5 -52t51.5 -16q23 0 23 18t-20.5 34.5t-72.5 45.5q-60 34 -86 65.5t-26 72.5
q0 35 15 61.5t36.5 41.5t49.5 24t48.5 12t38.5 3q59 0 120 -22.5t96 -67.5l-102 -104q-42 46 -93 46q-19 -2 -19 -14z" />
    <glyph glyph-name="Scedilla" unicode="&#x15e;" horiz-adv-x="664" 
d="M370 467q140 -50 205.5 -106t65.5 -149q0 -106 -76.5 -165t-191.5 -59h-6l-27 -39q42 2 64.5 -17t22.5 -55t-32 -60t-71 -24q-62 0 -98 29l44 53q14 -11 33 -11q31 0 31 23q0 22 -31 22q-19 0 -33 -11l-27 43l41 55q-155 25 -254 131l126 124q2 -1 27 -21.5t37.5 -29
t37.5 -23.5t49 -21.5t49 -6.5q39 -1 66 16.5t27 51.5q0 24 -16.5 42.5t-34 27t-59 25t-61.5 25.5q-32 15 -50.5 24t-53 31t-54 42.5t-35.5 51.5t-16 65q0 57 24.5 99.5t65 65.5t84.5 33.5t90 10.5q95 0 179.5 -32.5t135.5 -83.5l-111 -121q-33 25 -87.5 51t-109.5 26
q-30 0 -35 -1q-44 -9 -44 -50v-10.5t5.5 -12.5t15.5 -17t32.5 -18.5t55.5 -23.5z" />
    <glyph glyph-name="scedilla" unicode="&#x15f;" horiz-adv-x="463" 
d="M311 301q70 -33 101 -69.5t31 -83.5q0 -64 -42 -102t-110 -48l-34 -49q42 2 64.5 -17t22.5 -55t-32 -60t-71 -24q-62 0 -98 29l44 53q14 -11 33 -11q31 0 31 23q0 22 -31 22q-19 0 -33 -11l-27 43l43 57q-54 9 -108 36t-88 68l106 108q33 -36 65.5 -52t51.5 -16
q23 0 23 18t-20.5 34.5t-72.5 45.5q-60 34 -86 65.5t-26 72.5q0 35 15 61.5t36.5 41.5t49.5 24t48.5 12t38.5 3q59 0 120 -22.5t96 -67.5l-102 -104q-42 46 -93 46q-19 -2 -19 -14t12 -22.5t61 -34.5z" />
    <glyph glyph-name="Scaron" unicode="&#x160;" horiz-adv-x="664" 
d="M499 1060l-133 -199h-94l-134 199h119l62 -96l61 96h119zM370 467q140 -50 205.5 -106t65.5 -149q0 -106 -76.5 -165t-191.5 -59q-213 2 -343 139l126 124q2 -1 27 -21.5t37.5 -29t37.5 -23.5t49 -21.5t49 -6.5q39 -1 66 16.5t27 51.5q0 24 -16.5 42.5t-34 27t-59 25
t-61.5 25.5q-32 15 -50.5 24t-53 31t-54 42.5t-35.5 51.5t-16 65q0 57 24.5 99.5t65 65.5t84.5 33.5t90 10.5q95 0 179.5 -32.5t135.5 -83.5l-111 -121q-33 25 -87.5 51t-109.5 26q-30 0 -35 -1q-44 -9 -44 -50v-10.5t5.5 -12.5t15.5 -17t32.5 -18.5t55.5 -23.5z" />
    <glyph glyph-name="scaron" unicode="&#x161;" horiz-adv-x="463" 
d="M416 825l-133 -199h-94l-134 199h119l62 -96l61 96h119zM238 358q0 -12 12 -22.5t61 -34.5q70 -33 101 -69.5t31 -83.5q0 -75 -56.5 -114t-142.5 -39q-58 0 -127 28.5t-110 78.5l106 108q33 -36 65.5 -52t51.5 -16q23 0 23 18t-20.5 34.5t-72.5 45.5q-60 34 -86 65.5
t-26 72.5q0 35 15 61.5t36.5 41.5t49.5 24t48.5 12t38.5 3q59 0 120 -22.5t96 -67.5l-102 -104q-42 46 -93 46q-19 -2 -19 -14z" />
    <glyph glyph-name="uni0162" unicode="&#x162;" horiz-adv-x="625" 
d="M415 0h-46l-35 -51q42 2 64.5 -17t22.5 -55t-32 -60t-71 -24q-62 0 -98 29l44 53q14 -11 33 -11q31 0 31 23q0 22 -31 22q-19 0 -33 -11l-27 43l44 59h-59v590h-192v160h575v-160h-190v-590z" />
    <glyph glyph-name="uni0163" unicode="&#x163;" horiz-adv-x="394" 
d="M374 367h-103v-168q0 -46 33.5 -64.5t69.5 2.5v-112q-28 -24 -93 -29l-32 -47q42 2 64.5 -17t22.5 -55t-32 -60t-71 -24q-62 0 -98 29l44 53q14 -11 33 -11q31 0 31 23q0 22 -31 22q-19 0 -33 -11l-27 43l44 59h7q-121 26 -121 194v173h-52v148h52v138h189v-138h103v-148
z" />
    <glyph glyph-name="Tcaron" unicode="&#x164;" horiz-adv-x="625" 
d="M493 1060l-133 -199h-94l-134 199h119l62 -96l61 96h119zM605 590h-190v-590h-193v590h-192v160h575v-160z" />
    <glyph glyph-name="tcaron" unicode="&#x165;" horiz-adv-x="490" 
d="M464 555h-161l-15 265h191zM374 137v-112q-36 -30 -121 -30q-171 0 -171 199v173h-52v148h52v138h189v-138h103v-148h-103v-168q0 -46 33.5 -64.5t69.5 2.5z" />
    <glyph glyph-name="Umacron" unicode="&#x16a;" horiz-adv-x="732" 
d="M587 824h-389v150h389v-150zM692 750v-451q0 -42 -7 -80.5t-28 -82t-54.5 -75t-91.5 -52.5t-134 -21t-134 21t-92 52.5t-55 75t-28.5 82.5t-7.5 80v451h193v-451q0 -19 3.5 -38t14 -47.5t38 -46.5t68.5 -18q33 0 57.5 13t36.5 30t19 41t8 37.5t1 28.5v451h193z" />
    <glyph glyph-name="umacron" unicode="&#x16b;" horiz-adv-x="533" 
d="M474 577h-389v150h389v-150zM33 515h178v-308q0 -44 14.5 -63.5t45.5 -19.5q33 0 46.5 19t13.5 64v308h178v-515h-178v46q-20 -26 -57 -38.5t-66 -12.5q-93 0 -133.5 53t-40.5 163z" />
    <glyph glyph-name="Uring" unicode="&#x16e;" horiz-adv-x="732" 
d="M392 1094q61 0 103 -40.5t42 -103.5t-42 -103.5t-103 -40.5q-59 0 -101 40.5t-42 103.5t42 103.5t101 40.5zM392 1000q-20 0 -35 -15t-15 -35q0 -21 15 -36t35 -15q21 0 36 15t15 36q0 20 -15 35t-36 15zM692 750v-451q0 -42 -7 -80.5t-28 -82t-54.5 -75t-91.5 -52.5
t-134 -21t-134 21t-92 52.5t-55 75t-28.5 82.5t-7.5 80v451h193v-451q0 -19 3.5 -38t14 -47.5t38 -46.5t68.5 -18q33 0 57.5 13t36.5 30t19 41t8 37.5t1 28.5v451h193z" />
    <glyph glyph-name="uring" unicode="&#x16f;" horiz-adv-x="533" 
d="M279 847q61 0 103 -40.5t42 -103.5t-42 -103.5t-103 -40.5q-59 0 -101 40.5t-42 103.5t42 103.5t101 40.5zM279 753q-20 0 -35 -15t-15 -35q0 -21 15 -36t35 -15q21 0 36 15t15 36q0 20 -15 35t-36 15zM33 515h178v-308q0 -44 14.5 -63.5t45.5 -19.5q33 0 46.5 19
t13.5 64v308h178v-515h-178v46q-20 -26 -57 -38.5t-66 -12.5q-93 0 -133.5 53t-40.5 163z" />
    <glyph glyph-name="Uhungarumlaut" unicode="&#x170;" horiz-adv-x="732" 
d="M202 861l94 183l130 -50l-105 -133h-119zM433 861l94 183l130 -50l-105 -133h-119zM692 750v-451q0 -42 -7 -80.5t-28 -82t-54.5 -75t-91.5 -52.5t-134 -21t-134 21t-92 52.5t-55 75t-28.5 82.5t-7.5 80v451h193v-451q0 -19 3.5 -38t14 -47.5t38 -46.5t68.5 -18
q33 0 57.5 13t36.5 30t19 41t8 37.5t1 28.5v451h193z" />
    <glyph glyph-name="uhungarumlaut" unicode="&#x171;" horiz-adv-x="533" 
d="M89 614l94 183l130 -50l-105 -133h-119zM320 614l94 183l130 -50l-105 -133h-119zM33 515h178v-308q0 -44 14.5 -63.5t45.5 -19.5q33 0 46.5 19t13.5 64v308h178v-515h-178v46q-20 -26 -57 -38.5t-66 -12.5q-93 0 -133.5 53t-40.5 163z" />
    <glyph glyph-name="Uogonek" unicode="&#x172;" horiz-adv-x="732" 
d="M499 750h193v-451q0 -39 -6 -75t-23.5 -76.5t-45.5 -71.5t-76 -54.5t-111 -30.5q-34 -34 -34 -57q0 -18 18 -31.5t45 -13.5v-86q-87 0 -132.5 29.5t-45.5 77.5q0 45 51 80q-65 6 -114.5 29t-78.5 54.5t-47.5 72.5t-25 77.5t-6.5 75.5v451h193v-451q0 -19 3.5 -38
t14 -47.5t38 -46.5t68.5 -18q33 0 57.5 13t36.5 30t19 41t8 37.5t1 28.5v451z" />
    <glyph glyph-name="uogonek" unicode="&#x173;" horiz-adv-x="533" 
d="M460 -76q0 -18 18 -31.5t45 -13.5v-86q-87 0 -132.5 29.5t-45.5 77.5q0 55 83 100h-97v46q-20 -26 -57 -38.5t-66 -12.5q-93 0 -133.5 53t-40.5 163l-1 304h178v-308q0 -44 14.5 -63.5t45.5 -19.5q33 0 46.5 19t13.5 64v308h178v-515h4q-53 -51 -53 -76z" />
    <glyph glyph-name="Wcircumflex" unicode="&#x174;" horiz-adv-x="1048" 
d="M710 861h-119l-61 96l-62 -96h-119l134 199h94zM275 0l-265 750h183l136 -384l134 384h120l136 -384l135 384h184l-267 -750h-110l-138 397l-137 -397h-111z" />
    <glyph glyph-name="wcircumflex" unicode="&#x175;" horiz-adv-x="831" 
d="M597 626h-119l-61 96l-62 -96h-119l134 199h94zM821 515l-202 -515h-120l-84 235l-82 -235h-121l-202 515h184l79 -258l77 258h130l79 -259l79 259h183z" />
    <glyph glyph-name="Ycircumflex" unicode="&#x176;" horiz-adv-x="784" 
d="M557 861h-119l-61 96l-62 -96h-119l134 199h94zM774 750l-286 -472v-278h-192v278l-286 472h202l180 -292l182 292h200z" />
    <glyph glyph-name="ycircumflex" unicode="&#x177;" horiz-adv-x="629" 
d="M503 626h-119l-61 96l-62 -96h-119l134 199h94zM619 515l-155 -379q-43 -106 -71.5 -164t-61 -96t-65 -49.5t-82.5 -10.5q-34 0 -74.5 16.5t-63.5 46.5l25 113q60 -30 96 -30q72 0 23 127l-163 426h187l109 -321l109 321h187z" />
    <glyph glyph-name="Ydieresis" unicode="&#x178;" horiz-adv-x="784" 
d="M356 961q0 -40 -28 -68t-68 -28q-39 0 -67 28t-28 68q0 38 28 65t67 27q40 0 68 -27t28 -65zM600 961q0 -40 -28 -68t-68 -28q-39 0 -67 28t-28 68q0 38 28 65t67 27q40 0 68 -27t28 -65zM774 750l-286 -472v-278h-192v278l-286 472h202l180 -292l182 292h200z" />
    <glyph glyph-name="Zacute" unicode="&#x179;" horiz-adv-x="665" 
d="M288 861l94 183l130 -50l-105 -133h-119zM628 598l-350 -438h350v-160h-581v152l353 438h-353v160h581v-152z" />
    <glyph glyph-name="zacute" unicode="&#x17a;" horiz-adv-x="478" 
d="M180 626l94 183l130 -50l-105 -133h-119zM458 363l-227 -216h227v-147h-428v157l228 210h-228v148h428v-152z" />
    <glyph glyph-name="Zdotaccent" unicode="&#x17b;" horiz-adv-x="665" 
d="M450 961q0 -40 -28 -68t-68 -28q-39 0 -67 28t-28 68q0 38 28 65t67 27q40 0 68 -27t28 -65zM628 598l-350 -438h350v-160h-581v152l353 438h-353v160h581v-152z" />
    <glyph glyph-name="zdotaccent" unicode="&#x17c;" horiz-adv-x="478" 
d="M341 726q0 -40 -28 -68t-68 -28q-39 0 -67 28t-28 68q0 38 28 65t67 27q40 0 68 -27t28 -65zM458 363l-227 -216h227v-147h-428v157l228 210h-228v148h428v-152z" />
    <glyph glyph-name="Zcaron" unicode="&#x17d;" horiz-adv-x="665" 
d="M533 1060l-133 -199h-94l-134 199h119l62 -96l61 96h119zM628 598l-350 -438h350v-160h-581v152l353 438h-353v160h581v-152z" />
    <glyph glyph-name="zcaron" unicode="&#x17e;" horiz-adv-x="478" 
d="M425 825l-133 -199h-94l-134 199h119l62 -96l61 96h119zM458 363l-227 -216h227v-147h-428v157l228 210h-228v148h428v-152z" />
    <glyph glyph-name="circumflex" unicode="&#x2c6;" horiz-adv-x="481" 
d="M421 614h-119l-61 96l-62 -96h-119l134 199h94z" />
    <glyph glyph-name="caron" unicode="&#x2c7;" horiz-adv-x="448" 
d="M421 780l-133 -199h-94l-134 199h119l62 -96l61 96h119z" />
    <glyph glyph-name="breve" unicode="&#x2d8;" horiz-adv-x="513" 
d="M453 813q0 -97 -59.5 -146.5t-137.5 -49.5q-77 0 -136.5 49.5t-59.5 146.5h119q0 -87 77 -87t77 87h120z" />
    <glyph glyph-name="dotaccent" unicode="&#x2d9;" horiz-adv-x="261" 
d="M251 714q0 -40 -28 -68t-68 -28q-39 0 -67 28t-28 68q0 38 28 65t67 27q40 0 68 -27t28 -65z" />
    <glyph glyph-name="ring" unicode="&#x2da;" horiz-adv-x="408" 
d="M203 847q61 0 103 -40.5t42 -103.5t-42 -103.5t-103 -40.5q-59 0 -101 40.5t-42 103.5t42 103.5t101 40.5zM203 753q-20 0 -35 -15t-15 -35q0 -21 15 -36t35 -15q21 0 36 15t15 36q0 20 -15 35t-36 15z" />
    <glyph glyph-name="ogonek" unicode="&#x2db;" horiz-adv-x="264" 
d="M158 -76q0 -18 18 -31.5t45 -13.5v-86q-87 0 -132.5 29.5t-45.5 77.5q0 55 83 100h85q-53 -51 -53 -76z" />
    <glyph glyph-name="tilde" unicode="&#x2dc;" horiz-adv-x="551" 
d="M207 640q-17 0 -22.5 -12t-5.5 -41h-119q0 85 36.5 131t86.5 46q33 0 88 -26.5t73 -26.5q17 0 22.5 12t5.5 41h119q0 -85 -36.5 -131t-86.5 -46q-34 0 -88.5 26.5t-72.5 26.5z" />
    <glyph glyph-name="hungarumlaut" unicode="&#x2dd;" horiz-adv-x="575" 
d="M291 614l93 183l131 -50l-105 -133h-119zM60 614l94 183l130 -50l-105 -133h-119z" />
    <glyph glyph-name="gravecomb" unicode="&#x300;" horiz-adv-x="0" 
d="M-60 614h-119l-105 133l130 50z" />
    <glyph glyph-name="acutecomb" unicode="&#x301;" horiz-adv-x="0" 
d="M-284 614l94 183l130 -50l-105 -133h-119z" />
    <glyph glyph-name="uni0302" unicode="&#x302;" horiz-adv-x="0" 
d="M-60 614h-119l-61 96l-62 -96h-119l134 199h94z" />
    <glyph glyph-name="tildecomb" unicode="&#x303;" horiz-adv-x="0" 
d="M-394 640q-17 0 -22.5 -12t-5.5 -41h-119q0 85 36.5 131t86.5 46q34 0 88 -26.5t73 -26.5q17 0 22.5 12t5.5 41h119q0 -85 -36.5 -131t-86.5 -46q-33 0 -88 26.5t-73 26.5z" />
    <glyph glyph-name="uni0304" unicode="&#x304;" horiz-adv-x="0" 
d="M-60 577h-389v150h389v-150z" />
    <glyph glyph-name="uni0306" unicode="&#x306;" horiz-adv-x="0" 
d="M-94 813q0 -97 -59 -146.5t-137 -49.5q-77 0 -136.5 49.5t-59.5 146.5h119q0 -87 77 -87t77 87h119z" />
    <glyph glyph-name="uni0307" unicode="&#x307;" horiz-adv-x="0" 
d="M-60 714q0 -40 -28 -68t-68 -28q-39 0 -67 28t-28 68q0 38 28 65t67 27q40 0 68 -27t28 -65z" />
    <glyph glyph-name="uni0308" unicode="&#x308;" horiz-adv-x="0" 
d="M-297 714q0 -40 -28 -68t-68 -28q-39 0 -67 28t-28 68q0 38 28 65t67 27q40 0 68 -27t28 -65zM-53 714q0 -40 -28 -68t-68 -28q-39 0 -67 28t-28 68q0 38 28 65t67 27q40 0 68 -27t28 -65z" />
    <glyph glyph-name="uni030A" unicode="&#x30a;" horiz-adv-x="0" 
d="M-238 847q60 0 102 -40.5t42 -103.5t-42 -103.5t-102 -40.5t-101.5 40.5t-41.5 103.5t41.5 103.5t101.5 40.5zM-238 753q-20 0 -35 -15t-15 -35q0 -21 15 -36t35 -15q21 0 36 15t15 36q0 20 -15 35t-36 15z" />
    <glyph glyph-name="uni030B" unicode="&#x30b;" horiz-adv-x="0" 
d="M-284 614l94 183l130 -50l-105 -133h-119zM-515 614l94 183l130 -50l-105 -133h-119z" />
    <glyph glyph-name="uni030C" unicode="&#x30c;" horiz-adv-x="0" 
d="M-44 813l-133 -199h-94l-134 199h119l62 -96l61 96h119z" />
    <glyph glyph-name="uni0312" unicode="&#x312;" horiz-adv-x="0" 
d="M-250 651q0 36 43 92l88 108h46l-37 -116q23 -11 36.5 -34t13.5 -50q0 -39 -28 -66.5t-66 -27.5q-40 0 -68 27.5t-28 66.5z" />
    <glyph glyph-name="uni0326" unicode="&#x326;" horiz-adv-x="0" 
d="M-60 -136q0 -36 -43 -92l-88 -108h-46l37 116q-23 11 -36.5 34t-13.5 50q0 39 28 66.5t66 27.5q40 0 68 -27.5t28 -66.5z" />
    <glyph glyph-name="uni0327" unicode="&#x327;" horiz-adv-x="0" 
d="M-79 0l-35 -51q42 2 64.5 -17t22.5 -55t-32 -60t-71 -24q-62 0 -98 29l44 53q14 -11 33 -11q31 0 31 23q0 22 -31 22q-19 0 -33 -11l-27 43l44 59h88z" />
    <glyph glyph-name="uni0328" unicode="&#x328;" horiz-adv-x="0" 
d="M-106 -76q0 -18 18 -31.5t45 -13.5v-86q-87 0 -132.5 29.5t-45.5 77.5q0 55 83 100h85q-53 -51 -53 -76z" />
    <glyph glyph-name="uni0335" unicode="&#x335;" horiz-adv-x="0" 
 />
    <glyph glyph-name="uni0337" unicode="&#x337;" horiz-adv-x="0" 
 />
    <glyph glyph-name="uni0338" unicode="&#x338;" horiz-adv-x="0" 
 />
    <glyph glyph-name="Wgrave" unicode="&#x1e80;" horiz-adv-x="1048" 
d="M600 861h-119l-105 133l130 50zM275 0l-265 750h183l136 -384l134 384h120l136 -384l135 384h184l-267 -750h-110l-138 397l-137 -397h-111z" />
    <glyph glyph-name="wgrave" unicode="&#x1e81;" horiz-adv-x="831" 
d="M487 626h-119l-105 133l130 50zM821 515l-202 -515h-120l-84 235l-82 -235h-121l-202 515h184l79 -258l77 258h130l79 -259l79 259h183z" />
    <glyph glyph-name="Wacute" unicode="&#x1e82;" horiz-adv-x="1048" 
d="M465 861l94 183l130 -50l-105 -133h-119zM275 0l-265 750h183l136 -384l134 384h120l136 -384l135 384h184l-267 -750h-110l-138 397l-137 -397h-111z" />
    <glyph glyph-name="wacute" unicode="&#x1e83;" horiz-adv-x="831" 
d="M352 626l94 183l130 -50l-105 -133h-119zM821 515l-202 -515h-120l-84 235l-82 -235h-121l-202 515h184l79 -258l77 258h130l79 -259l79 259h183z" />
    <glyph glyph-name="Wdieresis" unicode="&#x1e84;" horiz-adv-x="1048" 
d="M510 961q0 -40 -28 -68t-68 -28q-39 0 -67 28t-28 68q0 38 28 65t67 27q40 0 68 -27t28 -65zM754 961q0 -40 -28 -68t-68 -28q-39 0 -67 28t-28 68q0 38 28 65t67 27q40 0 68 -27t28 -65zM275 0l-265 750h183l136 -384l134 384h120l136 -384l135 384h184l-267 -750h-110
l-138 397l-137 -397h-111z" />
    <glyph glyph-name="wdieresis" unicode="&#x1e85;" horiz-adv-x="831" 
d="M396 726q0 -40 -28 -68t-68 -28q-39 0 -67 28t-28 68q0 38 28 65t67 27q40 0 68 -27t28 -65zM640 726q0 -40 -28 -68t-68 -28q-39 0 -67 28t-28 68q0 38 28 65t67 27q40 0 68 -27t28 -65zM821 515l-202 -515h-120l-84 235l-82 -235h-121l-202 515h184l79 -258l77 258h130
l79 -259l79 259h183z" />
    <glyph glyph-name="Ygrave" unicode="&#x1ef2;" horiz-adv-x="784" 
d="M447 861h-119l-105 133l130 50zM774 750l-286 -472v-278h-192v278l-286 472h202l180 -292l182 292h200z" />
    <glyph glyph-name="ygrave" unicode="&#x1ef3;" horiz-adv-x="629" 
d="M393 626h-119l-105 133l130 50zM619 515l-155 -379q-43 -106 -71.5 -164t-61 -96t-65 -49.5t-82.5 -10.5q-34 0 -74.5 16.5t-63.5 46.5l25 113q60 -30 96 -30q72 0 23 127l-163 426h187l109 -321l109 321h187z" />
    <glyph glyph-name="endash" unicode="&#x2013;" horiz-adv-x="649" 
d="M599 184h-539v150h539v-150z" />
    <glyph glyph-name="emdash" unicode="&#x2014;" horiz-adv-x="799" 
d="M749 184h-689v150h689v-150z" />
    <glyph glyph-name="quoteleft" unicode="&#x2018;" horiz-adv-x="260" 
d="M8 544q0 36 43 92l88 108h46l-37 -116q23 -11 36.5 -34t13.5 -50q0 -39 -27.5 -66.5t-66.5 -27.5q-40 0 -68 27.5t-28 66.5z" />
    <glyph glyph-name="quoteright" unicode="&#x2019;" horiz-adv-x="260" 
d="M252 709q0 -36 -43 -92l-88 -108h-46l37 116q-23 11 -36.5 34t-13.5 50q0 39 27.5 66.5t66.5 27.5q40 0 68 -27.5t28 -66.5z" />
    <glyph glyph-name="quotesinglbase" unicode="&#x201a;" horiz-adv-x="260" 
d="M252 89q0 -36 -43 -92l-88 -108h-46l37 116q-23 11 -36.5 34t-13.5 50q0 39 27.5 66.5t66.5 27.5q40 0 68 -27.5t28 -66.5z" />
    <glyph glyph-name="quotedblleft" unicode="&#x201c;" horiz-adv-x="523" 
d="M43 547q0 36 43 92l88 108h46l-37 -116q23 -11 36.5 -34t13.5 -50q0 -39 -27.5 -66.5t-66.5 -27.5q-40 0 -68 27.5t-28 66.5zM273 547q0 36 43 92l88 108h46l-37 -116q23 -11 36.5 -34t13.5 -50q0 -39 -27.5 -66.5t-66.5 -27.5q-40 0 -68 27.5t-28 66.5z" />
    <glyph glyph-name="quotedblright" unicode="&#x201d;" horiz-adv-x="540" 
d="M250 709q0 -36 -43 -92l-88 -108h-46l37 116q-23 11 -36.5 34t-13.5 50q0 39 27.5 66.5t66.5 27.5q40 0 68 -27.5t28 -66.5zM480 709q0 -36 -43 -92l-88 -108h-46l37 116q-23 11 -36.5 34t-13.5 50q0 39 27.5 66.5t66.5 27.5q40 0 68 -27.5t28 -66.5z" />
    <glyph glyph-name="quotedblbase" unicode="&#x201e;" horiz-adv-x="550" 
d="M250 89q0 -36 -43 -92l-88 -108h-46l37 116q-23 11 -36.5 34t-13.5 50q0 39 28 66.5t66 27.5q40 0 68 -27.5t28 -66.5zM490 89q0 -36 -43 -92l-88 -108h-46l37 116q-23 11 -36.5 34t-13.5 50q0 39 28 66.5t66 27.5q40 0 68 -27.5t28 -66.5z" />
    <glyph glyph-name="dagger" unicode="&#x2020;" 
 />
    <glyph glyph-name="daggerdbl" unicode="&#x2021;" 
 />
    <glyph glyph-name="bullet" unicode="&#x2022;" 
 />
    <glyph glyph-name="ellipsis" unicode="&#x2026;" horiz-adv-x="798" 
d="M251 91q0 -40 -28 -68t-68 -28q-39 0 -67 28t-28 68q0 38 28 65t67 27q40 0 68 -27t28 -65zM494 91q0 -40 -28 -68t-68 -28q-39 0 -67 28t-28 68q0 38 28 65t67 27q40 0 68 -27t28 -65zM738 91q0 -40 -28 -68t-68 -28t-67.5 28t-27.5 68q0 38 27.5 65t67.5 27t68 -27
t28 -65z" />
    <glyph glyph-name="perthousand" unicode="&#x2030;" horiz-adv-x="1553" 
d="M263 793q89 0 147 -59t58 -144t-58 -144.5t-147 -59.5q-88 0 -145.5 59.5t-57.5 144.5t57.5 144t145.5 59zM413 0h-163l412 750h162zM263 670q-36 0 -58 -23t-22 -57q0 -35 22 -58t58 -23q37 0 59 23t22 58q0 34 -22 57t-59 23zM810 364q89 0 146.5 -59t57.5 -144
t-58 -144.5t-146 -59.5t-146 59.5t-58 144.5t58 144t146 59zM1256 364q89 0 146.5 -59t57.5 -144t-58 -144.5t-146 -59.5t-146 59.5t-58 144.5t58 144t146 59zM810 241q-36 0 -58 -23t-22 -57q0 -35 21.5 -58t58.5 -23t59 23t22 58q0 34 -22 57t-59 23zM1256 241
q-36 0 -58 -23t-22 -57q0 -35 21.5 -58t58.5 -23t59 23t22 58q0 34 -22 57t-59 23z" />
    <glyph glyph-name="guilsinglleft" unicode="&#x2039;" horiz-adv-x="479" 
d="M60 319l359 270v-204l-179 -113l179 -111v-204l-359 269v93z" />
    <glyph glyph-name="guilsinglright" unicode="&#x203a;" horiz-adv-x="484" 
d="M424 319v-93l-359 -269v204l179 111l-179 113v204z" />
    <glyph glyph-name="fraction" unicode="&#x2044;" horiz-adv-x="574" 
d="M163 0h-163l412 750h162z" />
    <glyph glyph-name="Euro" unicode="&#x20ac;" horiz-adv-x="896" 
d="M528 155q62 0 108 32t72 77l135 -85q-44 -86 -132 -135t-186 -49q-121 0 -222.5 66.5t-147.5 173.5h-95v77h72q-4 28 -4 43h-68v77h72q22 138 135 230.5t258 92.5q100 0 187.5 -48t130.5 -138l-135 -84q-23 46 -70 78t-110 32q-82 0 -134.5 -44.5t-67.5 -118.5h193v-77
h-198q1 -22 6 -43h192v-77h-159q58 -80 168 -80z" />
    <glyph glyph-name="trademark" unicode="&#x2122;" horiz-adv-x="661" 
d="M263 723h-67v-208h-68v208h-68v57h203v-57zM600 780v-265h-69v125l-64 -125h-42l-64 125v-125h-68v265h67l86 -169l86 169h68z" />
    <glyph glyph-name="partialdiff" unicode="&#x2202;" 
 />
    <glyph glyph-name="emptyset" unicode="&#x2205;" 
 />
    <glyph glyph-name="product" unicode="&#x220f;" 
 />
    <glyph glyph-name="summation" unicode="&#x2211;" 
 />
    <glyph glyph-name="minus" unicode="&#x2212;" horiz-adv-x="476" 
d="M449 184h-389v150h389v-150z" />
    <glyph glyph-name="radical" unicode="&#x221a;" 
 />
    <glyph glyph-name="infinity" unicode="&#x221e;" 
 />
    <glyph glyph-name="integral" unicode="&#x222b;" 
 />
    <glyph glyph-name="approxequal" unicode="&#x2248;" 
 />
    <glyph glyph-name="notequal" unicode="&#x2260;" 
 />
    <glyph glyph-name="lessequal" unicode="&#x2264;" 
 />
    <glyph glyph-name="greaterequal" unicode="&#x2265;" 
 />
    <glyph glyph-name="lozenge" unicode="&#x25ca;" 
 />
    <glyph glyph-name="one.sups" horiz-adv-x="193" 
d="M150 750v-247h-63v194h-33v53h96z" />
    <glyph glyph-name="two.sups" horiz-adv-x="272" 
d="M132 556h94v-53h-167v30q0 31 12 47t48 38q43 29 43 62q0 7 -3.5 12t-6.5 6t-5 1h-1q-16 1 -20 -20q-2 -8 -2 -18l-64 7q0 35 23.5 59t63.5 24q36 0 57.5 -20.5t21.5 -50.5q0 -41 -35 -70q-8 -7 -25.5 -17t-25.5 -18t-8 -19z" />
    <glyph glyph-name="three.sups" horiz-adv-x="282" 
d="M176 669q58 -15 58 -80q0 -43 -27.5 -65.5t-64.5 -22.5q-56 0 -82 33l34 40q19 -20 43 -20q14 0 24 9t10 26q0 9 -2.5 17t-14 15.5t-29.5 5.5l-15 29l26 41h-56v53h153z" />
    </font>
</defs>
</svg>
